<?xml version="1.0" encoding="UTF-8" standalone="no"?>
<!-- Created with Inkscape (http://www.inkscape.org/) -->

<svg
   width="1065"
   height="280"
   viewBox="0 0 281.78125 74.083335"
   version="1.1"
   id="svg43048"
   inkscape:version="1.1.1 (3bf5ae0d25, 2021-09-20)"
   sodipodi:docname="uam_base.svg"
   xmlns:inkscape="http://www.inkscape.org/namespaces/inkscape"
   xmlns:sodipodi="http://sodipodi.sourceforge.net/DTD/sodipodi-0.dtd"
   xmlns="http://www.w3.org/2000/svg"
   xmlns:svg="http://www.w3.org/2000/svg">
  <sodipodi:namedview
     id="namedview43050"
     pagecolor="#505050"
     bordercolor="#eeeeee"
     borderopacity="1"
     inkscape:pageshadow="0"
     inkscape:pageopacity="0"
     inkscape:pagecheckerboard="0"
     inkscape:document-units="mm"
     showgrid="false"
     inkscape:zoom="0.74118967"
     inkscape:cx="447.25394"
     inkscape:cy="234.08313"
     inkscape:window-width="1920"
     inkscape:window-height="1017"
     inkscape:window-x="-8"
     inkscape:window-y="-8"
     inkscape:window-maximized="1"
     inkscape:current-layer="layer1"
     units="px" />
  <defs
     id="defs43045" />
  <g
     inkscape:label="Capa 1"
     inkscape:groupmode="layer"
     id="layer1">
    <g
       id="g24608"
       transform="matrix(3.3868983,0,0,3.3868983,931.78721,366.12314)">
      <path
         d="m -257.05407,-103.70753 v 0 l -1.17403,-2.64162 v -1.9e-4 l 0.56148,-1.26302 h 2.3482 z m -1.96956,4.431706 c -0.10299,0.227447 -0.27581,0.36844 -0.45138,0.36844 h -5.24041 c -0.17508,0 -0.34768,-0.140434 -0.45068,-0.366728 l -3.70595,-8.338248 h 2.34823 l 3.22273,7.25137 0.005,-8.6e-4 -0.004,0.002 c 0.21293,0.473777 0.6862,0.77991 1.20556,0.77991 0.18738,0 0.36937,-0.03923 0.54104,-0.11633 0.29677,-0.133329 0.53293,-0.37022 0.66518,-0.66697 v 0 l 1.08839,-2.44852 1.17411,2.64158 v 0 z m -3.94624,-6.732566 v 3.6e-4 c 0.0925,-0.20729 0.25877,-0.38295 0.48214,-0.48332 0.12751,-0.0573 0.26096,-0.0842 0.39245,-0.0842 0.36523,3.7e-4 0.71399,0.21038 0.87322,0.56515 v -5.5e-4 l 1.22298,2.7511 -1.22169,2.74862 v -3.7e-4 c -0.0925,0.20742 -0.25856,0.38286 -0.48194,0.48336 -0.1275,0.05721 -0.26089,0.08439 -0.39208,0.08439 -0.36543,0 -0.71442,-0.21026 -0.87379,-0.56525 v 3.6e-4 l -1.22264,-2.75076 z m 9.25906,7.464673 h 3.1441 l -4.1922,-9.432323 h -3.14409 v 0 l -0.52406,1.17902 -0.26486,-0.59587 c -0.15754,-0.34858 -0.44898,-0.58278 -0.7826,-0.58315 h -5.2409 c -0.33348,0 -0.62469,0.23366 -0.78238,0.58152 l -0.26566,0.5975 -0.52405,-1.17902 h -3.14403 v 0 0 l -4.19236,9.432323 h 3.14425 l 2.62012,-5.895283 0.52399,1.17916 -2.096,4.716123 h 3.14403 l 0.52405,-1.179088 0.26566,0.597583 c 0.15769,0.348027 0.4489,0.581505 0.78238,0.581505 h 5.24041 c 0.33397,0 0.62577,-0.234407 0.78324,-0.583509 l 0.26471,-0.595432 0.52406,1.178941 h 3.14409 l -2.09606,-4.715983 0.5241,-1.1793 2.62006,5.895283"
         style="fill:#000000;fill-opacity:1;fill-rule:nonzero;stroke:none;stroke-width:0.0181835"
         id="path24470" />
      <path
         d="m -274.01086,-97.124202 c -0.036,-0.06891 -0.1015,-0.103487 -0.19654,-0.103487 -0.0524,0 -0.0957,0.01419 -0.12962,0.04224 -0.034,0.02822 -0.0607,0.0739 -0.0801,0.13689 -0.0194,0.06306 -0.033,0.145595 -0.0409,0.247525 -0.008,0.101921 -0.0116,0.226785 -0.0116,0.374333 0,0.157175 0.005,0.284309 0.016,0.381413 0.0107,0.09717 0.0273,0.172255 0.0494,0.225727 0.0224,0.05342 0.0507,0.0893 0.0846,0.107754 0.0341,0.01841 0.0734,0.02779 0.11791,0.02779 0.037,0 0.0716,-0.006 0.10335,-0.01893 0.0322,-0.01264 0.0599,-0.03785 0.0831,-0.0757 0.0235,-0.03785 0.0418,-0.09134 0.0554,-0.160237 0.0135,-0.06882 0.0205,-0.1596 0.0205,-0.272188 h 0.41921 c 0,0.112588 -0.009,0.219344 -0.0261,0.320207 -0.0176,0.100992 -0.0501,0.189296 -0.0977,0.265083 -0.0477,0.07561 -0.11457,0.134954 -0.20087,0.177562 -0.0865,0.04284 -0.19853,0.06417 -0.33654,0.06417 -0.15711,0 -0.28248,-0.0252 -0.37553,-0.07562 -0.0932,-0.0505 -0.16465,-0.123246 -0.21415,-0.218423 -0.0495,-0.09519 -0.0815,-0.208685 -0.0961,-0.340792 -0.0145,-0.131901 -0.0219,-0.277737 -0.0219,-0.436839 0,-0.157329 0.008,-0.302374 0.0219,-0.435401 0.0145,-0.132976 0.0465,-0.246966 0.0961,-0.342367 0.0495,-0.09496 0.12096,-0.169192 0.21415,-0.222673 0.0931,-0.05325 0.21842,-0.08009 0.37553,-0.08009 0.14959,0 0.26743,0.02434 0.35394,0.07278 0.0863,0.04843 0.15094,0.110248 0.1937,0.184814 0.0427,0.07484 0.0693,0.155419 0.0801,0.241856 0.0107,0.08631 0.016,0.167498 0.016,0.243138 h -0.41943 c 0,-0.151505 -0.0179,-0.261607 -0.0539,-0.330504"
         style="fill:#000000;fill-opacity:1;fill-rule:nonzero;stroke:none;stroke-width:0.0181835"
         id="path24472" />
      <path
         d="m -272.64937,-96.148604 c -0.0311,0.01265 -0.0592,0.02185 -0.0846,0.0277 -0.0816,0.01746 -0.1398,0.04654 -0.17475,0.08737 -0.035,0.04069 -0.0524,0.0961 -0.0524,0.166069 0,0.06013 0.0116,0.111651 0.035,0.154267 0.0234,0.04284 0.0621,0.06392 0.11648,0.06392 0.0272,0 0.0553,-0.0043 0.0846,-0.0129 0.0292,-0.0087 0.0557,-0.02297 0.0801,-0.04224 0.0241,-0.01944 0.044,-0.04473 0.0597,-0.0757 0.0155,-0.03114 0.0233,-0.06804 0.0233,-0.110799 v -0.308697 c -0.0272,0.02142 -0.0563,0.03845 -0.0874,0.05101 z m -0.64658,-0.391728 c 0,-0.09129 0.0146,-0.167419 0.0438,-0.228514 0.0291,-0.06133 0.0686,-0.11079 0.11784,-0.148649 0.0495,-0.03776 0.10782,-0.06503 0.17494,-0.08146 0.067,-0.01652 0.13816,-0.02495 0.21402,-0.02495 0.12017,0 0.21734,0.01179 0.29115,0.03527 0.0737,0.02305 0.13111,0.05609 0.17196,0.09886 0.0407,0.04267 0.0683,0.09361 0.0828,0.152925 0.0145,0.05927 0.0218,0.123736 0.0218,0.193708 v 0.824144 c 0,0.0739 0.003,0.131058 0.0102,0.171893 0.007,0.0406 0.0199,0.0843 0.0395,0.130972 h -0.38449 c -0.0136,-0.02512 -0.0238,-0.05196 -0.0305,-0.08 -0.007,-0.02822 -0.0132,-0.05583 -0.019,-0.0831 h -0.006 c -0.0464,0.08172 -0.10052,0.134619 -0.16153,0.158766 -0.0612,0.02434 -0.14027,0.03647 -0.23746,0.03647 -0.0698,0 -0.12912,-0.01213 -0.17757,-0.03647 -0.0487,-0.02409 -0.0874,-0.05772 -0.11648,-0.100519 -0.0292,-0.04267 -0.0504,-0.0907 -0.0641,-0.144176 -0.0137,-0.05325 -0.0205,-0.106188 -0.0205,-0.158757 0,-0.07364 0.008,-0.137234 0.0235,-0.190492 0.0155,-0.05351 0.0392,-0.09908 0.0712,-0.137087 0.0321,-0.03785 0.0728,-0.06925 0.12231,-0.09468 0.0495,-0.02503 0.10916,-0.0474 0.17899,-0.06701 l 0.2273,-0.06099 c 0.0602,-0.01548 0.10193,-0.03699 0.12537,-0.06417 0.0231,-0.02718 0.0348,-0.06693 0.0348,-0.119324 0,-0.06022 -0.014,-0.107263 -0.0422,-0.141354 -0.028,-0.03381 -0.0762,-0.05093 -0.14419,-0.05093 -0.0621,0 -0.10867,0.01849 -0.13957,0.0554 -0.0312,0.03699 -0.0467,0.0863 -0.0467,0.148452 v 0.0437 h -0.36125 v -0.03785"
         style="fill:#000000;fill-opacity:1;fill-rule:nonzero;stroke:none;stroke-width:0.0181835"
         id="path24474" />
      <path
         d="m -271.59801,-95.876218 c 0,0.06787 0.018,0.122739 0.0539,0.164435 0.0359,0.04181 0.0879,0.06254 0.15578,0.06254 0.0621,0 0.11164,-0.0154 0.14859,-0.04654 0.037,-0.03105 0.0554,-0.07759 0.0554,-0.139712 0,-0.0505 -0.0147,-0.08878 -0.0439,-0.115065 -0.0291,-0.02615 -0.063,-0.04706 -0.10169,-0.06271 l -0.28271,-0.101921 c -0.11059,-0.03871 -0.19405,-0.09355 -0.25039,-0.164435 -0.0563,-0.0708 -0.0843,-0.161595 -0.0843,-0.272403 0,-0.06392 0.0104,-0.124649 0.0318,-0.181984 0.0213,-0.05721 0.0553,-0.107246 0.10201,-0.14987 0.0464,-0.04284 0.10631,-0.07673 0.17913,-0.102137 0.0728,-0.02503 0.16054,-0.03785 0.26338,-0.03785 0.18269,0 0.31766,0.03897 0.40478,0.116554 0.0874,0.07776 0.13127,0.187523 0.13127,0.32923 v 0.06409 h -0.36118 c 0,-0.08172 -0.0132,-0.141346 -0.0391,-0.179127 -0.0263,-0.03785 -0.0725,-0.05678 -0.13838,-0.05678 -0.0507,0 -0.0948,0.01419 -0.13268,0.04224 -0.0378,0.02822 -0.0568,0.0702 -0.0568,0.126575 0,0.03897 0.0123,0.0739 0.0365,0.104975 0.0243,0.03105 0.0704,0.05721 0.13838,0.07854 l 0.24185,0.08164 c 0.12599,0.04267 0.21549,0.09851 0.2677,0.16742 0.0526,0.06891 0.0787,0.162645 0.0787,0.281126 0,0.08344 -0.0145,0.155686 -0.0437,0.216987 -0.0292,0.06108 -0.0693,0.112011 -0.12075,0.152864 -0.0515,0.04069 -0.11258,0.06977 -0.18347,0.08736 -0.0711,0.01746 -0.14917,0.02615 -0.23453,0.02615 -0.11258,0 -0.20635,-0.01067 -0.28092,-0.03209 -0.0747,-0.02125 -0.13403,-0.05342 -0.1778,-0.09603 -0.0437,-0.04275 -0.0742,-0.09482 -0.0917,-0.15591 -0.0175,-0.06108 -0.0262,-0.12962 -0.0262,-0.205407 v -0.05531 h 0.36119 v 0.05256"
         style="fill:#000000;fill-opacity:1;fill-rule:nonzero;stroke:none;stroke-width:0.0181835"
         id="path24476" />
      <path
         d="m -269.95546,-96.148604 c -0.0311,0.01265 -0.0592,0.02185 -0.0845,0.0277 -0.0815,0.01746 -0.1398,0.04654 -0.17473,0.08737 -0.035,0.04069 -0.0524,0.0961 -0.0524,0.166069 0,0.06013 0.0115,0.111651 0.035,0.154267 0.0232,0.04284 0.0619,0.06392 0.11628,0.06392 0.0272,0 0.0554,-0.0043 0.0846,-0.0129 0.0292,-0.0087 0.0558,-0.02297 0.0802,-0.04224 0.0243,-0.01944 0.0441,-0.04473 0.0597,-0.0757 0.0155,-0.03114 0.0233,-0.06804 0.0233,-0.110799 v -0.308697 c -0.0274,0.02142 -0.0564,0.03845 -0.0874,0.05101 z m -0.64649,-0.391728 c 0,-0.09129 0.0145,-0.167419 0.0437,-0.228514 0.0292,-0.06133 0.0684,-0.11079 0.11789,-0.148649 0.0495,-0.03776 0.10762,-0.06503 0.17475,-0.08146 0.0669,-0.01652 0.13829,-0.02495 0.21393,-0.02495 0.12041,0 0.21757,0.01179 0.29122,0.03527 0.0739,0.02305 0.13106,0.05609 0.1719,0.09886 0.0409,0.04267 0.0686,0.09361 0.083,0.152925 0.0147,0.05927 0.022,0.123736 0.022,0.193708 v 0.824144 c 0,0.0739 0.003,0.131058 0.0101,0.171893 0.007,0.0406 0.0199,0.0843 0.0392,0.130972 h -0.38439 c -0.0135,-0.02512 -0.0238,-0.05196 -0.0306,-0.08 -0.007,-0.02822 -0.0131,-0.05583 -0.0188,-0.0831 h -0.006 c -0.0467,0.08172 -0.10052,0.134619 -0.1616,0.158766 -0.0612,0.02434 -0.14028,0.03647 -0.23746,0.03647 -0.0698,0 -0.12904,-0.01213 -0.17748,-0.03647 -0.0487,-0.02409 -0.0876,-0.05772 -0.11671,-0.100519 -0.0292,-0.04267 -0.0504,-0.0907 -0.0639,-0.144176 -0.0138,-0.05325 -0.0205,-0.106188 -0.0205,-0.158757 0,-0.07364 0.008,-0.137234 0.0233,-0.190492 0.0154,-0.05351 0.0393,-0.09908 0.0714,-0.137087 0.032,-0.03785 0.0728,-0.06925 0.1224,-0.09468 0.0494,-0.02503 0.10917,-0.0474 0.17893,-0.06701 l 0.22729,-0.06099 c 0.0602,-0.01548 0.10177,-0.03699 0.12521,-0.06417 0.0233,-0.02718 0.0349,-0.06693 0.0349,-0.119324 0,-0.06022 -0.0141,-0.107263 -0.0422,-0.141354 -0.0282,-0.03381 -0.0762,-0.05093 -0.14426,-0.05093 -0.0621,0 -0.10859,0.01849 -0.1397,0.0554 -0.0311,0.03699 -0.0468,0.0863 -0.0468,0.148452 v 0.0437 h -0.36096 v -0.03785"
         style="fill:#000000;fill-opacity:1;fill-rule:nonzero;stroke:none;stroke-width:0.0181835"
         id="path24478" />
      <path
         d="m -267.85583,-96.148604 c -0.0311,0.01265 -0.0591,0.02185 -0.0843,0.0277 -0.0815,0.01746 -0.13992,0.04654 -0.17472,0.08737 -0.035,0.04069 -0.0526,0.0961 -0.0526,0.166069 0,0.06013 0.0117,0.111651 0.0349,0.154267 0.0234,0.04284 0.0622,0.06392 0.11656,0.06392 0.0272,0 0.0553,-0.0043 0.0846,-0.0129 0.0292,-0.0087 0.0557,-0.02297 0.0801,-0.04224 0.0242,-0.01944 0.044,-0.04473 0.0597,-0.0757 0.0156,-0.03114 0.0234,-0.06804 0.0234,-0.110799 v -0.308697 c -0.0274,0.02142 -0.0565,0.03845 -0.0876,0.05101 z m -0.64651,-0.391728 c 0,-0.09129 0.0145,-0.167419 0.0437,-0.228514 0.0292,-0.06133 0.0686,-0.11079 0.11791,-0.148649 0.0497,-0.03776 0.10783,-0.06503 0.17486,-0.08146 0.067,-0.01652 0.13824,-0.02495 0.21402,-0.02495 0.12039,0 0.21735,0.01179 0.29123,0.03527 0.0739,0.02305 0.13105,0.05609 0.17189,0.09886 0.0409,0.04267 0.0683,0.09361 0.0828,0.152925 0.0146,0.05927 0.0218,0.123736 0.0218,0.193708 v 0.824144 c 0,0.0739 0.003,0.131058 0.0102,0.171893 0.007,0.0406 0.0201,0.0843 0.0394,0.130972 h -0.38449 c -0.0137,-0.02512 -0.0238,-0.05196 -0.0305,-0.08 -0.007,-0.02822 -0.0132,-0.05583 -0.0188,-0.0831 h -0.006 c -0.0465,0.08172 -0.1003,0.134619 -0.16159,0.158766 -0.0611,0.02434 -0.14029,0.03647 -0.23746,0.03647 -0.0698,0 -0.12905,-0.01213 -0.17749,-0.03647 -0.0485,-0.02409 -0.0874,-0.05772 -0.11658,-0.100519 -0.029,-0.04267 -0.0503,-0.0907 -0.0641,-0.144176 -0.0135,-0.05325 -0.0202,-0.106188 -0.0202,-0.158757 0,-0.07364 0.008,-0.137234 0.0231,-0.190492 0.0156,-0.05351 0.0394,-0.09908 0.0716,-0.137087 0.0319,-0.03785 0.0726,-0.06925 0.12231,-0.09468 0.0494,-0.02503 0.10902,-0.0474 0.17899,-0.06701 l 0.22708,-0.06099 c 0.0602,-0.01548 0.10201,-0.03699 0.12522,-0.06417 0.0235,-0.02718 0.0352,-0.06693 0.0352,-0.119324 0,-0.06022 -0.0142,-0.107263 -0.0423,-0.141354 -0.028,-0.03381 -0.0762,-0.05093 -0.14405,-0.05093 -0.0621,0 -0.1089,0.01849 -0.13994,0.0554 -0.0311,0.03699 -0.0465,0.0863 -0.0465,0.148452 v 0.0437 h -0.3612 v -0.03785"
         style="fill:#000000;fill-opacity:1;fill-rule:nonzero;stroke:none;stroke-width:0.0181835"
         id="path24480" />
      <path
         d="m -266.65736,-95.813705 c 0.0263,0.08652 0.084,0.12963 0.17332,0.12963 0.0874,0 0.14418,-0.0431 0.17033,-0.12963 0.0262,-0.0863 0.0395,-0.215016 0.0395,-0.385912 0,-0.170757 -0.0132,-0.299311 -0.0395,-0.385834 -0.0261,-0.08645 -0.083,-0.12963 -0.17033,-0.12963 -0.0894,0 -0.14702,0.04318 -0.17332,0.12963 -0.0261,0.08652 -0.0394,0.215077 -0.0394,0.385834 0,0.170896 0.0133,0.299613 0.0394,0.385912 z m -0.0394,-1.681966 v 0.65829 h 0.006 c 0.0427,-0.06211 0.0906,-0.108683 0.14397,-0.139797 0.0535,-0.03106 0.11813,-0.04671 0.19379,-0.04671 0.16499,0 0.28646,0.06469 0.36402,0.19376 0.0776,0.129139 0.11648,0.339373 0.11648,0.63053 0,0.291294 -0.0389,0.499902 -0.11648,0.626202 -0.0776,0.126206 -0.19903,0.189287 -0.36402,0.189287 -0.0815,0 -0.15002,-0.01462 -0.20527,-0.0437 -0.0554,-0.02916 -0.10528,-0.08043 -0.15002,-0.154344 h -0.006 v 0.166 h -0.38441 v -2.079517 h 0.40181"
         style="fill:#000000;fill-opacity:1;fill-rule:nonzero;stroke:none;stroke-width:0.0181835"
         id="path24482" />
      <path
         d="m -265.22589,-96.982994 v 1.566832 h -0.4019 v -1.566832 z m 0,-0.53592 v 0.343794 h -0.4019 v -0.343794 h 0.4019"
         style="fill:#000000;fill-opacity:1;fill-rule:nonzero;stroke:none;stroke-width:0.0181835"
         id="path24484" />
      <path
         d="m -264.20081,-96.535858 c -0.006,-0.04568 -0.016,-0.08456 -0.0305,-0.116485 -0.0145,-0.03217 -0.035,-0.05652 -0.0611,-0.07278 -0.0262,-0.01652 -0.0598,-0.02486 -0.1005,-0.02486 -0.0409,0 -0.0744,0.0092 -0.10052,0.02761 -0.0262,0.01858 -0.0471,0.04284 -0.0626,0.07286 -0.0156,0.03011 -0.0268,0.06349 -0.0334,0.100502 -0.007,0.0369 -0.0103,0.07389 -0.0103,0.110592 v 0.06134 h 0.4107 c -0.002,-0.06022 -0.006,-0.113285 -0.0117,-0.15874 z m -0.39896,0.522552 c 0,0.0468 0.003,0.09177 0.0103,0.135522 0.007,0.0437 0.0179,0.0825 0.0334,0.116502 0.0156,0.03407 0.0359,0.06116 0.061,0.08146 0.0255,0.02047 0.0565,0.03054 0.0933,0.03054 0.068,0 0.11755,-0.02417 0.14859,-0.07261 0.0311,-0.04869 0.0524,-0.122369 0.0642,-0.22146 h 0.36104 c -0.008,0.182543 -0.0563,0.321412 -0.14547,0.416588 -0.0893,0.09504 -0.23013,0.142628 -0.4224,0.142628 -0.14562,0 -0.25912,-0.02434 -0.34081,-0.07278 -0.0815,-0.04852 -0.14171,-0.112597 -0.18055,-0.192341 -0.039,-0.0794 -0.0626,-0.168839 -0.0712,-0.267793 -0.009,-0.09908 -0.0132,-0.198164 -0.0132,-0.297049 0,-0.104768 0.007,-0.205838 0.0218,-0.302933 0.0146,-0.09696 0.0438,-0.183472 0.0874,-0.259113 0.0436,-0.07579 0.10632,-0.136021 0.18787,-0.180564 0.0815,-0.04473 0.19015,-0.06719 0.32616,-0.06719 0.1165,0 0.21203,0.01901 0.28682,0.05678 0.0748,0.03785 0.13354,0.09133 0.1763,0.160245 0.0426,0.06899 0.0717,0.152349 0.0872,0.250519 0.0154,0.09801 0.0233,0.207249 0.0233,0.327648 v 0.09021 h -0.79508 v 0.125156"
         style="fill:#000000;fill-opacity:1;fill-rule:nonzero;stroke:none;stroke-width:0.0181835"
         id="path24486" />
      <path
         d="m -263.21066,-96.982994 v 0.209675 h 0.006 c 0.0409,-0.07579 0.0902,-0.136382 0.14846,-0.181984 0.0585,-0.04568 0.12913,-0.06856 0.21281,-0.06856 0.0115,0 0.0237,5.6e-4 0.0364,0.0017 0.0127,6.36e-4 0.0247,0.0026 0.0365,0.0043 v 0.384484 c -0.0215,-0.0017 -0.0424,-0.0034 -0.0627,-0.0043 -0.0205,-8.6e-4 -0.0411,-0.0017 -0.0625,-0.0017 -0.0349,0 -0.0699,0.0052 -0.10498,0.01454 -0.0349,0.0098 -0.0669,0.02581 -0.096,0.04817 -0.0292,0.02237 -0.0524,0.05153 -0.0699,0.08736 -0.0175,0.03587 -0.0261,0.08009 -0.0261,0.132486 v 0.940706 h -0.40204 v -1.566832 h 0.38441"
         style="fill:#000000;fill-opacity:1;fill-rule:nonzero;stroke:none;stroke-width:0.0181835"
         id="path24488" />
      <path
         d="m -262.13598,-97.43154 v 0.448546 h 0.23297 v 0.273823 h -0.23297 v 0.847517 c 0,0.06202 0.009,0.106188 0.0277,0.132468 0.0185,0.02615 0.0568,0.03923 0.11506,0.03923 0.0156,0 0.0309,-3.44e-4 0.0465,-8.6e-4 0.0156,-8.61e-4 0.0302,-0.0026 0.0437,-0.0043 v 0.279647 c -0.0446,0 -0.0877,8.6e-4 -0.12964,0.0043 -0.0418,0.0034 -0.0858,0.0043 -0.13246,0.0043 -0.0776,0 -0.14121,-0.0052 -0.1907,-0.016 -0.0496,-0.01067 -0.0874,-0.03217 -0.11365,-0.06409 -0.0262,-0.03191 -0.044,-0.07424 -0.0538,-0.126791 -0.01,-0.05239 -0.0146,-0.118248 -0.0146,-0.198027 v -0.896877 h -0.20385 v -0.273823 h 0.20385 v -0.448546 h 0.4019"
         style="fill:#000000;fill-opacity:1;fill-rule:nonzero;stroke:none;stroke-width:0.0181835"
         id="path24490" />
      <path
         d="m -261.11956,-96.148604 c -0.0311,0.01265 -0.0593,0.02185 -0.0844,0.0277 -0.0816,0.01746 -0.13992,0.04654 -0.17486,0.08737 -0.035,0.04069 -0.0524,0.0961 -0.0524,0.166069 0,0.06013 0.0116,0.111651 0.035,0.154267 0.0233,0.04284 0.0621,0.06392 0.11651,0.06392 0.0273,0 0.0553,-0.0043 0.0843,-0.0129 0.0293,-0.0087 0.056,-0.02297 0.0801,-0.04224 0.0243,-0.01944 0.0442,-0.04473 0.0597,-0.0757 0.0157,-0.03114 0.0234,-0.06804 0.0234,-0.110799 v -0.308697 c -0.0271,0.02142 -0.0563,0.03845 -0.0874,0.05101 z m -0.64657,-0.391728 c 0,-0.09129 0.0145,-0.167419 0.0438,-0.228514 0.029,-0.06133 0.0683,-0.11079 0.11784,-0.148649 0.0496,-0.03776 0.10782,-0.06503 0.17481,-0.08146 0.0669,-0.01652 0.13829,-0.02495 0.21415,-0.02495 0.12039,0 0.21735,0.01179 0.29121,0.03527 0.0736,0.02305 0.13106,0.05609 0.17168,0.09886 0.0409,0.04267 0.0686,0.09361 0.0831,0.152925 0.0145,0.05927 0.0218,0.123736 0.0218,0.193708 v 0.824144 c 0,0.0739 0.003,0.131058 0.0102,0.171893 0.007,0.0406 0.0199,0.0843 0.0395,0.130972 h -0.38449 c -0.0136,-0.02512 -0.0238,-0.05196 -0.0307,-0.08 -0.007,-0.02822 -0.013,-0.05583 -0.0188,-0.0831 h -0.006 c -0.0467,0.08172 -0.10057,0.134619 -0.16157,0.158766 -0.0612,0.02434 -0.14029,0.03647 -0.23746,0.03647 -0.0699,0 -0.12905,-0.01213 -0.17756,-0.03647 -0.0487,-0.02409 -0.0874,-0.05772 -0.11651,-0.100519 -0.0292,-0.04267 -0.0507,-0.0907 -0.0641,-0.144176 -0.0137,-0.05325 -0.0205,-0.106188 -0.0205,-0.158757 0,-0.07364 0.008,-0.137234 0.0232,-0.190492 0.0157,-0.05351 0.0394,-0.09908 0.0715,-0.137087 0.0322,-0.03785 0.0728,-0.06925 0.12231,-0.09468 0.0495,-0.02503 0.10917,-0.0474 0.17899,-0.06701 l 0.2273,-0.06099 c 0.06,-0.01548 0.10193,-0.03699 0.12523,-0.06417 0.0232,-0.02718 0.0349,-0.06693 0.0349,-0.119324 0,-0.06022 -0.014,-0.107263 -0.0422,-0.141354 -0.0282,-0.03381 -0.0762,-0.05093 -0.14419,-0.05093 -0.0622,0 -0.10869,0.01849 -0.1398,0.0554 -0.031,0.03699 -0.0464,0.0863 -0.0464,0.148452 v 0.0437 h -0.36125 v -0.03785"
         style="fill:#000000;fill-opacity:1;fill-rule:nonzero;stroke:none;stroke-width:0.0181835"
         id="path24492" />
      <path
         d="m -259.01971,-96.148604 c -0.0311,0.01265 -0.0593,0.02185 -0.0847,0.0277 -0.0815,0.01746 -0.1397,0.04654 -0.17465,0.08737 -0.035,0.04069 -0.0524,0.0961 -0.0524,0.166069 0,0.06013 0.0116,0.111651 0.0348,0.154267 0.0234,0.04284 0.0621,0.06392 0.1167,0.06392 0.0272,0 0.0552,-0.0043 0.0843,-0.0129 0.0292,-0.0087 0.0557,-0.02297 0.0801,-0.04224 0.0243,-0.01944 0.0442,-0.04473 0.0598,-0.0757 0.0155,-0.03114 0.0232,-0.06804 0.0232,-0.110799 v -0.308697 c -0.0271,0.02142 -0.0564,0.03845 -0.0873,0.05101 z m -0.64659,-0.391728 c 0,-0.09129 0.0145,-0.167419 0.0436,-0.228514 0.0292,-0.06133 0.0683,-0.11079 0.11792,-0.148649 0.0495,-0.03776 0.10774,-0.06503 0.17472,-0.08146 0.067,-0.01652 0.13831,-0.02495 0.21415,-0.02495 0.12026,0 0.21736,0.01179 0.29122,0.03527 0.0737,0.02305 0.13106,0.05609 0.17168,0.09886 0.0409,0.04267 0.0686,0.09361 0.0832,0.152925 0.0145,0.05927 0.0218,0.123736 0.0218,0.193708 v 0.824144 c 0,0.0739 0.003,0.131058 0.0102,0.171893 0.007,0.0406 0.0199,0.0843 0.0392,0.130972 h -0.38427 c -0.0136,-0.02512 -0.0238,-0.05196 -0.0307,-0.08 -0.007,-0.02822 -0.0129,-0.05583 -0.0188,-0.0831 h -0.006 c -0.0467,0.08172 -0.1005,0.134619 -0.1616,0.158766 -0.0613,0.02434 -0.14028,0.03647 -0.23736,0.03647 -0.0698,0 -0.12914,-0.01213 -0.1778,-0.03647 -0.0485,-0.02409 -0.0872,-0.05772 -0.11627,-0.100519 -0.0292,-0.04267 -0.0507,-0.0907 -0.0642,-0.144176 -0.0137,-0.05325 -0.0205,-0.106188 -0.0205,-0.158757 0,-0.07364 0.008,-0.137234 0.0233,-0.190492 0.0157,-0.05351 0.0395,-0.09908 0.0714,-0.137087 0.032,-0.03785 0.0728,-0.06925 0.12239,-0.09468 0.0495,-0.02503 0.10918,-0.0474 0.17899,-0.06701 l 0.22731,-0.06099 c 0.0599,-0.01548 0.10184,-0.03699 0.12513,-0.06417 0.0233,-0.02718 0.0349,-0.06693 0.0349,-0.119324 0,-0.06022 -0.014,-0.107263 -0.0422,-0.141354 -0.0282,-0.03381 -0.0761,-0.05093 -0.1442,-0.05093 -0.0621,0 -0.10881,0.01849 -0.1397,0.0554 -0.0311,0.03699 -0.0465,0.0863 -0.0465,0.148452 v 0.0437 h -0.36118 v -0.03785"
         style="fill:#000000;fill-opacity:1;fill-rule:nonzero;stroke:none;stroke-width:0.0181835"
         id="path24494" />
      <path
         d="m -257.84618,-97.495671 v 2.079509 h -0.40181 v -2.079509 h 0.40181"
         style="fill:#000000;fill-opacity:1;fill-rule:nonzero;stroke:none;stroke-width:0.0181835"
         id="path24496" />
      <path
         d="m -256.3756,-97.43154 v 0.448546 h 0.23311 v 0.273823 h -0.23311 v 0.847517 c 0,0.06202 0.009,0.106188 0.0278,0.132468 0.0184,0.02615 0.0568,0.03923 0.11509,0.03923 0.0157,0 0.0311,-3.44e-4 0.0465,-8.6e-4 0.0155,-8.61e-4 0.03,-0.0026 0.0436,-0.0043 v 0.279647 c -0.0446,0 -0.088,8.6e-4 -0.12965,0.0043 -0.0418,0.0034 -0.0858,0.0043 -0.13256,0.0043 -0.0774,0 -0.14111,-0.0052 -0.19074,-0.016 -0.0495,-0.01067 -0.0873,-0.03217 -0.11356,-0.06409 -0.0263,-0.03191 -0.0443,-0.07424 -0.0538,-0.126791 -0.01,-0.05239 -0.0145,-0.118248 -0.0145,-0.198027 v -0.896877 h -0.20385 v -0.273823 h 0.20385 v -0.448546 h 0.40173"
         style="fill:#000000;fill-opacity:1;fill-rule:nonzero;stroke:none;stroke-width:0.0181835"
         id="path24498" />
      <path
         d="m -255.58626,-96.982994 v 1.566832 h -0.40186 v -1.566832 z m 0,-0.53592 v 0.343794 h -0.40186 v -0.343794 h 0.40186"
         style="fill:#000000;fill-opacity:1;fill-rule:nonzero;stroke:none;stroke-width:0.0181835"
         id="path24500" />
      <path
         d="m -254.56108,-96.535858 c -0.006,-0.04568 -0.0162,-0.08456 -0.0305,-0.116485 -0.0145,-0.03217 -0.0349,-0.05652 -0.0613,-0.07278 -0.0262,-0.01652 -0.0596,-0.02486 -0.10056,-0.02486 -0.0405,0 -0.0742,0.0092 -0.10038,0.02761 -0.0262,0.01858 -0.047,0.04284 -0.0625,0.07286 -0.0157,0.03011 -0.0269,0.06349 -0.0336,0.100502 -0.007,0.0369 -0.01,0.07389 -0.01,0.110592 v 0.06134 h 0.41058 c -0.002,-0.06022 -0.006,-0.113285 -0.0116,-0.15874 z m -0.39894,0.522552 c 0,0.0468 0.003,0.09177 0.01,0.135522 0.007,0.0437 0.018,0.0825 0.0336,0.116502 0.0155,0.03407 0.0358,0.06116 0.0611,0.08146 0.025,0.02047 0.0562,0.03054 0.0933,0.03054 0.068,0 0.11728,-0.02417 0.14838,-0.07261 0.0311,-0.04869 0.0526,-0.122369 0.0642,-0.22146 h 0.36113 c -0.008,0.182543 -0.0563,0.321412 -0.14565,0.416588 -0.0893,0.09504 -0.2302,0.142628 -0.42223,0.142628 -0.14582,0 -0.25929,-0.02434 -0.34075,-0.07278 -0.0816,-0.04852 -0.14183,-0.112597 -0.18057,-0.192341 -0.039,-0.0794 -0.0627,-0.168839 -0.0715,-0.267793 -0.009,-0.09908 -0.0129,-0.198164 -0.0129,-0.297049 0,-0.104768 0.007,-0.205838 0.0216,-0.302933 0.0145,-0.09696 0.0439,-0.183472 0.0875,-0.259113 0.0436,-0.07579 0.1062,-0.136021 0.18766,-0.180564 0.0818,-0.04473 0.19037,-0.06719 0.32621,-0.06719 0.11656,0 0.2122,0.01901 0.28712,0.05678 0.0747,0.03785 0.13328,0.09133 0.17601,0.160245 0.0429,0.06899 0.0718,0.152349 0.0875,0.250519 0.0157,0.09801 0.0233,0.207249 0.0233,0.327648 v 0.09021 H -254.96 v 0.125156"
         style="fill:#000000;fill-opacity:1;fill-rule:nonzero;stroke:none;stroke-width:0.0181835"
         id="path24502" />
      <path
         d="m -253.57098,-96.982994 v 0.160177 h 0.006 c 0.0504,-0.07174 0.1071,-0.123247 0.17019,-0.154361 0.0631,-0.03106 0.13838,-0.04671 0.22566,-0.04671 0.0933,0 0.17147,0.02151 0.23439,0.06435 0.0633,0.04267 0.10545,0.104769 0.12692,0.186234 h 0.006 c 0.0311,-0.08344 0.081,-0.146103 0.14983,-0.187868 0.0691,-0.04164 0.15092,-0.06271 0.24639,-0.06271 0.13382,0 0.23238,0.04035 0.29548,0.120958 0.0631,0.0806 0.0946,0.196616 0.0946,0.348044 v 1.138742 h -0.40186 v -1.095059 c 0,-0.06581 -0.0122,-0.116485 -0.0364,-0.151437 -0.0243,-0.0351 -0.0647,-0.05239 -0.12092,-0.05239 -0.064,0 -0.1151,0.02133 -0.15292,0.06417 -0.0378,0.04267 -0.0568,0.110592 -0.0568,0.203851 v 1.030911 h -0.40185 v -1.095059 c 0,-0.06581 -0.0123,-0.116485 -0.0366,-0.151437 -0.0242,-0.0351 -0.0645,-0.05239 -0.12074,-0.05239 -0.0642,0 -0.11528,0.02133 -0.15311,0.06417 -0.0379,0.04267 -0.0568,0.110593 -0.0568,0.203851 v 1.030911 h -0.40186 v -1.566831 h 0.3844"
         style="fill:#000000;fill-opacity:1;fill-rule:nonzero;stroke:none;stroke-width:0.0181835"
         id="path24504" />
      <path
         d="m -251.3066,-95.813705 c 0.0262,0.08652 0.0839,0.12963 0.17348,0.12963 0.0873,0 0.14401,-0.0431 0.17019,-0.12963 0.0262,-0.0863 0.0392,-0.215016 0.0392,-0.385912 0,-0.170757 -0.0131,-0.299311 -0.0392,-0.385834 -0.0262,-0.08645 -0.0829,-0.12963 -0.17019,-0.12963 -0.0897,0 -0.14729,0.04318 -0.17348,0.12963 -0.0262,0.08652 -0.0392,0.215077 -0.0392,0.385834 0,0.170896 0.0131,0.299613 0.0392,0.385912 z m -0.0568,-1.169289 v 0.165992 h 0.006 c 0.0447,-0.07389 0.0949,-0.126576 0.15001,-0.158757 0.0555,-0.03191 0.12383,-0.04817 0.20547,-0.04817 0.16493,0 0.28621,0.06469 0.36404,0.19376 0.0777,0.129139 0.11655,0.339373 0.11655,0.63053 0,0.291294 -0.039,0.499902 -0.11655,0.626202 -0.0778,0.126206 -0.19911,0.189287 -0.36404,0.189287 -0.0758,0 -0.14019,-0.01402 -0.19365,-0.04215 -0.0534,-0.02822 -0.10146,-0.07329 -0.1442,-0.135445 h -0.006 v 0.649343 h -0.40186 v -2.070639 h 0.3844"
         style="fill:#000000;fill-opacity:1;fill-rule:nonzero;stroke:none;stroke-width:0.0181835"
         id="path24506" />
      <path
         d="m -249.93611,-95.978354 c 0.003,0.06822 0.0129,0.126283 0.0274,0.174792 0.0145,0.04869 0.0364,0.08644 0.0655,0.113646 0.0291,0.02736 0.0679,0.04069 0.11655,0.04069 0.0816,0 0.13783,-0.04267 0.16911,-0.128003 0.0309,-0.08542 0.0464,-0.226235 0.0464,-0.422344 0,-0.196177 -0.0155,-0.336809 -0.0464,-0.422197 -0.0313,-0.08542 -0.0875,-0.128201 -0.16911,-0.128201 -0.0485,0 -0.0875,0.01359 -0.11655,0.04086 -0.0291,0.0271 -0.0509,0.06495 -0.0655,0.113423 -0.0145,0.04869 -0.0238,0.106902 -0.0274,0.174732 -0.004,0.06822 -0.006,0.141845 -0.006,0.2214 0,0.07957 0.002,0.153492 0.006,0.221253 z m -0.37585,-0.57655 c 0.0213,-0.102773 0.0564,-0.188728 0.10474,-0.257616 0.0485,-0.06899 0.11219,-0.121466 0.19074,-0.157329 0.0787,-0.03587 0.17529,-0.05411 0.28985,-0.05411 0.12037,-0.0017 0.22038,0.01428 0.30002,0.04817 0.0797,0.03407 0.14256,0.08594 0.1893,0.155927 0.0465,0.06985 0.0797,0.156245 0.0989,0.259113 0.0197,0.102996 0.0291,0.223387 0.0291,0.361111 0,0.133957 -0.0106,0.252584 -0.0318,0.355356 -0.0214,0.102851 -0.0565,0.188797 -0.10492,0.257625 -0.0485,0.06891 -0.1122,0.120098 -0.19075,0.15314 -0.0787,0.03286 -0.17511,0.04938 -0.28985,0.04938 -0.12037,0.0017 -0.22037,-0.01299 -0.30002,-0.04508 -0.0795,-0.032 -0.14274,-0.08241 -0.18929,-0.151505 -0.0464,-0.06891 -0.0795,-0.155196 -0.0989,-0.259251 -0.0194,-0.103702 -0.0293,-0.223731 -0.0293,-0.359623 0,-0.13381 0.0108,-0.252291 0.0322,-0.355287"
         style="fill:#000000;fill-opacity:1;fill-rule:nonzero;stroke:none;stroke-width:0.0181835"
         id="path24508" />
      <path
         d="m -274.19163,-91.956116 c 0,0.08723 0.006,0.166921 0.0169,0.239517 0.0114,0.07286 0.0323,0.135728 0.063,0.189011 0.0305,0.05325 0.0727,0.0951 0.12594,0.125853 0.0532,0.0308 0.12025,0.04602 0.20086,0.04602 0.084,0 0.1518,-0.01531 0.20351,-0.04602 0.0516,-0.03071 0.0927,-0.0726 0.12338,-0.125853 0.0307,-0.05325 0.0517,-0.11614 0.063,-0.189011 0.0111,-0.0726 0.0169,-0.152289 0.0169,-0.239517 v -2.411586 h 0.69738 v 2.411586 c 0,0.219473 -0.0308,0.401181 -0.092,0.544652 -0.0615,0.143824 -0.14369,0.257616 -0.24705,0.341446 -0.10335,0.08405 -0.22104,0.140486 -0.35358,0.169614 -0.13225,0.0289 -0.26949,0.04344 -0.41155,0.04344 -0.14206,0 -0.27921,-0.0129 -0.41146,-0.03871 -0.13248,-0.02572 -0.25017,-0.07828 -0.35352,-0.15732 -0.10334,-0.07923 -0.18581,-0.191421 -0.24704,-0.336681 -0.0613,-0.145251 -0.092,-0.333979 -0.092,-0.566459 v -2.411578 h 0.6973 v 2.411578"
         style="fill:#000000;fill-opacity:1;fill-rule:nonzero;stroke:none;stroke-width:0.0181835"
         id="path24510" />
      <path
         d="m -270.59379,-91.999799 h 0.01 v -2.367903 h 0.63914 v 3.4575 h -0.79411 l -0.85222,-2.421187 h -0.01 v 2.421187 h -0.63904 v -3.4575 h 0.80361 l 0.84263,2.367903"
         style="fill:#000000;fill-opacity:1;fill-rule:nonzero;stroke:none;stroke-width:0.0181835"
         id="path24512" />
      <path
         d="m -269.42677,-94.367702 h 0.69728 v 3.4575 h -0.69728 v -3.4575"
         style="fill:#000000;fill-opacity:1;fill-rule:nonzero;stroke:none;stroke-width:0.0181835"
         id="path24514" />
      <path
         d="m -267.20406,-91.810873 h 0.0145 l 0.51332,-2.556829 h 0.72152 l -0.7941,3.4575 h -0.89603 l -0.79411,-3.4575 h 0.74572 l 0.48912,2.556829"
         style="fill:#000000;fill-opacity:1;fill-rule:nonzero;stroke:none;stroke-width:0.0181835"
         id="path24516" />
      <path
         d="m -263.7659,-93.79634 h -1.23483 v 0.813485 h 1.16217 v 0.57144 h -1.16217 v 0.929781 h 1.28327 v 0.571432 h -1.98064 v -3.4575 h 1.9322 v 0.571362"
         style="fill:#000000;fill-opacity:1;fill-rule:nonzero;stroke:none;stroke-width:0.0181835"
         id="path24518" />
      <path
         d="m -262.38104,-92.856907 c 0.16785,0 0.2969,-0.03948 0.38732,-0.118618 0.0904,-0.07906 0.13567,-0.21223 0.13567,-0.399392 0,-0.319631 -0.16145,-0.479446 -0.48428,-0.479446 h -0.32921 v 0.997456 z m 0.3001,-1.510795 c 0.29064,0 0.51652,0.07355 0.67797,0.220324 0.16138,0.146895 0.24221,0.370428 0.24221,0.670737 0,0.232403 -0.0469,0.42206 -0.14042,0.568946 -0.0938,0.146817 -0.23909,0.241288 -0.43576,0.28319 v 0.0098 c 0.17415,0.02572 0.30166,0.08224 0.38241,0.169424 0.0807,0.08714 0.13078,0.227637 0.15008,0.421346 0.006,0.0646 0.0114,0.134808 0.0145,0.210595 0.003,0.07587 0.006,0.160735 0.01,0.254278 0.006,0.183962 0.0162,0.324465 0.0289,0.421199 0.0193,0.09696 0.0614,0.163024 0.12594,0.198535 v 0.02916 h -0.7554 c -0.0355,-0.04843 -0.0581,-0.104072 -0.0679,-0.167076 -0.009,-0.06288 -0.0161,-0.128408 -0.0194,-0.196109 l -0.0194,-0.66333 c -0.006,-0.135669 -0.0403,-0.242227 -0.10157,-0.319648 -0.0614,-0.07742 -0.16471,-0.116339 -0.30996,-0.116339 h -0.37276 v 1.462502 h -0.6973 v -3.4575 h 1.2879"
         style="fill:#000000;fill-opacity:1;fill-rule:nonzero;stroke:none;stroke-width:0.0181835"
         id="path24520" />
      <path
         d="m -260.11485,-91.888424 c 0,0.08078 0.006,0.154267 0.0194,0.220334 0.013,0.06632 0.0372,0.121956 0.0727,0.167118 0.0355,0.04525 0.0831,0.08078 0.14298,0.106567 0.0596,0.02598 0.13474,0.03871 0.22516,0.03871 0.10647,0 0.20256,-0.03467 0.28803,-0.104064 0.0856,-0.06942 0.12834,-0.176873 0.12834,-0.322125 0,-0.07742 -0.0104,-0.144391 -0.0314,-0.200874 -0.0212,-0.05643 -0.0558,-0.107384 -0.10428,-0.152478 -0.0483,-0.04533 -0.11208,-0.08651 -0.1912,-0.12359 -0.0791,-0.03716 -0.17673,-0.07493 -0.29286,-0.11387 -0.15498,-0.05153 -0.28909,-0.108107 -0.40202,-0.169399 -0.11294,-0.06125 -0.20742,-0.133191 -0.28319,-0.215584 -0.076,-0.08215 -0.13163,-0.177356 -0.16715,-0.285531 -0.0355,-0.108098 -0.0533,-0.233331 -0.0533,-0.3754 0,-0.342143 0.0952,-0.597126 0.28568,-0.765123 0.19037,-0.167841 0.45197,-0.251783 0.78438,-0.251783 0.155,0 0.29798,0.01703 0.42866,0.05093 0.1307,0.03398 0.24363,0.08879 0.33904,0.16465 0.0951,0.07579 0.16932,0.172745 0.22267,0.290511 0.0532,0.117905 0.0798,0.259053 0.0798,0.423677 v 0.09676 h -0.66818 c 0,-0.164581 -0.0292,-0.291234 -0.0872,-0.38002 -0.0581,-0.08877 -0.15505,-0.133173 -0.2905,-0.133173 -0.0775,0 -0.14213,0.01135 -0.19377,0.03398 -0.0516,0.02254 -0.0929,0.05248 -0.12337,0.08951 -0.0308,0.03708 -0.0517,0.07992 -0.0631,0.128356 -0.0114,0.04852 -0.0169,0.09858 -0.0169,0.150086 0,0.106532 0.0225,0.196178 0.0678,0.268842 0.0452,0.0726 0.14191,0.139574 0.29051,0.201021 l 0.53755,0.232402 c 0.13232,0.05807 0.24043,0.118602 0.32438,0.181468 0.0839,0.06314 0.1508,0.130705 0.20101,0.203507 0.05,0.07269 0.0847,0.152357 0.10414,0.239568 0.0194,0.08715 0.029,0.184108 0.029,0.290657 0,0.364733 -0.10564,0.630246 -0.31716,0.796462 -0.21152,0.166336 -0.50586,0.249435 -0.8836,0.249435 -0.39406,0 -0.6757,-0.08534 -0.84503,-0.256541 -0.16961,-0.171256 -0.25437,-0.416588 -0.25437,-0.736072 v -0.140434 h 0.69738 v 0.101577"
         style="fill:#000000;fill-opacity:1;fill-rule:nonzero;stroke:none;stroke-width:0.0181835"
         id="path24522" />
      <path
         d="m -258.12943,-94.367702 h 0.69735 v 3.4575 h -0.69735 v -3.4575"
         style="fill:#000000;fill-opacity:1;fill-rule:nonzero;stroke:none;stroke-width:0.0181835"
         id="path24524" />
      <path
         d="m -255.87283,-91.423542 c 0.12256,0 0.22111,-0.0209 0.2953,-0.06288 0.0742,-0.04189 0.13328,-0.111384 0.17675,-0.208333 0.0436,-0.09673 0.0725,-0.224238 0.0871,-0.382488 0.0145,-0.158181 0.0219,-0.355141 0.0219,-0.590744 0,-0.196969 -0.007,-0.369705 -0.0193,-0.518156 -0.0129,-0.148452 -0.0397,-0.271922 -0.0798,-0.370419 -0.0405,-0.09859 -0.10019,-0.172616 -0.17929,-0.222888 -0.0791,-0.04989 -0.18475,-0.07493 -0.31712,-0.07493 h -0.29547 v 2.430821 z m 0.13547,-2.94416 c 0.2422,0 0.4373,0.03957 0.58606,0.118627 0.14837,0.07923 0.26383,0.192125 0.3462,0.338943 0.0822,0.147032 0.13802,0.323682 0.16693,0.530234 0.0291,0.206707 0.0436,0.437544 0.0436,0.692536 0,0.303509 -0.0186,0.567371 -0.0556,0.791609 -0.0371,0.224462 -0.10093,0.409354 -0.19129,0.554597 -0.0904,0.145268 -0.21148,0.253374 -0.36313,0.324396 -0.15183,0.07106 -0.34385,0.106558 -0.57624,0.106558 h -1.09933 v -3.4575 h 1.14282"
         style="fill:#000000;fill-opacity:1;fill-rule:nonzero;stroke:none;stroke-width:0.0181835"
         id="path24526" />
      <path
         d="m -252.69145,-92.21288 -0.33421,-1.554272 h -0.009 l -0.33421,1.554272 z m 0.092,-2.154822 0.91519,3.4575 h -0.72644 l -0.15964,-0.731247 h -0.92009 l -0.15983,0.731247 h -0.72625 l 0.91517,-3.4575 h 0.86189"
         style="fill:#000000;fill-opacity:1;fill-rule:nonzero;stroke:none;stroke-width:0.0181835"
         id="path24528" />
      <path
         d="m -250.40088,-91.423542 c 0.12256,0 0.22094,-0.0209 0.2953,-0.06288 0.0742,-0.04189 0.13311,-0.111384 0.17675,-0.208333 0.0436,-0.09673 0.0725,-0.224238 0.0871,-0.382488 0.0145,-0.158181 0.0219,-0.355141 0.0219,-0.590744 0,-0.196969 -0.007,-0.369705 -0.0193,-0.518156 -0.0131,-0.148452 -0.0397,-0.271922 -0.08,-0.370419 -0.0404,-0.09859 -0.10002,-0.172616 -0.17912,-0.222888 -0.0793,-0.04989 -0.18491,-0.07493 -0.31711,-0.07493 h -0.29548 v 2.430821 z m 0.13547,-2.94416 c 0.24221,0 0.43731,0.03957 0.58606,0.118627 0.14837,0.07923 0.26384,0.192125 0.34603,0.338943 0.0824,0.147032 0.13819,0.323682 0.1671,0.530234 0.0291,0.206707 0.0436,0.437544 0.0436,0.692536 0,0.303509 -0.0185,0.567371 -0.0556,0.791609 -0.0373,0.224462 -0.10092,0.409354 -0.1913,0.554597 -0.0904,0.145268 -0.21147,0.253374 -0.36312,0.324396 -0.15182,0.07106 -0.34385,0.106558 -0.57623,0.106558 h -1.09937 v -3.4575 h 1.14283"
         style="fill:#000000;fill-opacity:1;fill-rule:nonzero;stroke:none;stroke-width:0.0181835"
         id="path24530" />
      <path
         d="m -246.2365,-92.21288 -0.33421,-1.554272 h -0.01 l -0.33403,1.554272 z m 0.092,-2.154822 0.91517,3.4575 h -0.72642 l -0.15983,-0.731247 h -0.91992 l -0.15982,0.731247 h -0.72625 l 0.91518,-3.4575 h 0.86189"
         style="fill:#000000;fill-opacity:1;fill-rule:nonzero;stroke:none;stroke-width:0.0181835"
         id="path24532" />
      <path
         d="m -244.33342,-91.956116 c 0,0.08723 0.006,0.166921 0.0169,0.239517 0.0113,0.07286 0.0324,0.135728 0.0629,0.189011 0.0305,0.05325 0.0728,0.0951 0.12601,0.125853 0.0532,0.0308 0.12019,0.04602 0.20074,0.04602 0.084,0 0.15183,-0.01531 0.20365,-0.04602 0.0514,-0.03071 0.0926,-0.0726 0.12329,-0.125853 0.0307,-0.05325 0.0516,-0.11614 0.0631,-0.189011 0.0111,-0.0726 0.0169,-0.152289 0.0169,-0.239517 v -2.411586 h 0.69734 v 2.411586 c 0,0.219473 -0.0307,0.401181 -0.092,0.544652 -0.0614,0.143824 -0.14366,0.257616 -0.24713,0.341446 -0.10328,0.08405 -0.2211,0.140486 -0.35348,0.169614 -0.13219,0.0289 -0.26948,0.04344 -0.41167,0.04344 -0.14201,0 -0.27912,-0.0129 -0.41149,-0.03871 -0.13238,-0.02572 -0.25021,-0.07828 -0.35349,-0.15732 -0.10328,-0.07923 -0.18566,-0.191421 -0.24693,-0.336681 -0.0614,-0.145251 -0.092,-0.333979 -0.092,-0.566459 v -2.411578 h 0.69733 v 2.411578"
         style="fill:#000000;fill-opacity:1;fill-rule:nonzero;stroke:none;stroke-width:0.0181835"
         id="path24534" />
      <path
         d="m -240.35796,-93.79634 h -0.75535 v 2.886138 h -0.69733 v -2.886138 h -0.75534 v -0.571362 h 2.20802 v 0.571362"
         style="fill:#000000;fill-opacity:1;fill-rule:nonzero;stroke:none;stroke-width:0.0181835"
         id="path24536" />
      <path
         d="m -238.3385,-95.268425 -0.47477,0.697379 h -0.45496 l 0.26148,-0.697379 z m -1.07756,3.222664 c 0.0114,0.163015 0.034,0.295483 0.0679,0.397052 0.034,0.101714 0.0823,0.175945 0.14529,0.222819 0.0631,0.0468 0.14619,0.0702 0.24948,0.0702 0.10309,0 0.18637,-0.0234 0.24928,-0.0702 0.0632,-0.04688 0.11129,-0.121105 0.1453,-0.222819 0.0338,-0.101569 0.0563,-0.234037 0.0678,-0.397052 0.0111,-0.162999 0.0169,-0.360664 0.0169,-0.593092 0,-0.232472 -0.006,-0.429363 -0.0169,-0.590813 -0.0114,-0.161381 -0.034,-0.293926 -0.0678,-0.397207 -0.034,-0.103186 -0.0821,-0.178267 -0.1453,-0.225142 -0.0629,-0.0468 -0.14619,-0.0702 -0.24928,-0.0702 -0.10329,0 -0.18639,0.0234 -0.24948,0.0702 -0.0629,0.04688 -0.11128,0.121956 -0.14529,0.225142 -0.0338,0.103281 -0.0563,0.235826 -0.0679,0.397207 -0.0113,0.16145 -0.017,0.358341 -0.017,0.590813 0,0.232428 0.006,0.430093 0.017,0.593092 z m -0.67788,-1.317087 c 0.0242,-0.221039 0.0775,-0.410902 0.15965,-0.569083 0.0826,-0.158034 0.20111,-0.281487 0.35604,-0.370496 0.15492,-0.08871 0.36311,-0.133097 0.62478,-0.133097 0.2613,0 0.46968,0.04439 0.62479,0.133097 0.15474,0.08901 0.27328,0.212462 0.35584,0.370496 0.0824,0.158181 0.13547,0.348044 0.15965,0.569083 0.0242,0.221116 0.0364,0.462404 0.0364,0.723995 0,0.264592 -0.0122,0.506792 -0.0364,0.726283 -0.0242,0.219619 -0.0773,0.408424 -0.15965,0.566596 -0.0826,0.158181 -0.2011,0.279139 -0.35584,0.363167 -0.15511,0.08379 -0.36349,0.125862 -0.62479,0.125862 -0.26167,0 -0.46986,-0.04207 -0.62478,-0.125862 -0.15493,-0.08405 -0.27349,-0.204986 -0.35604,-0.363167 -0.0821,-0.158172 -0.13547,-0.346977 -0.15965,-0.566596 -0.0242,-0.219491 -0.0364,-0.461691 -0.0364,-0.726283 0,-0.261591 0.0121,-0.502879 0.0364,-0.723995"
         style="fill:#000000;fill-opacity:1;fill-rule:nonzero;stroke:none;stroke-width:0.0181835"
         id="path24538" />
      <path
         d="m -235.71881,-91.999799 h 0.01 v -2.367903 h 0.63915 v 3.4575 h -0.79407 l -0.85226,-2.421187 h -0.01 v 2.421187 h -0.63933 v -3.4575 h 0.8039 l 0.84262,2.367903"
         style="fill:#000000;fill-opacity:1;fill-rule:nonzero;stroke:none;stroke-width:0.0181835"
         id="path24540" />
      <path
         d="m -233.9441,-92.045761 c 0.0113,0.163015 0.0338,0.295483 0.0678,0.397052 0.0339,0.101714 0.0824,0.175945 0.14529,0.222819 0.0629,0.0468 0.14602,0.0702 0.24948,0.0702 0.1031,0 0.1862,-0.0234 0.24929,-0.0702 0.0632,-0.04688 0.11128,-0.121105 0.14529,-0.222819 0.0338,-0.101569 0.0564,-0.234037 0.0678,-0.397052 0.0111,-0.162999 0.0168,-0.360664 0.0168,-0.593092 0,-0.232472 -0.006,-0.429363 -0.0168,-0.590813 -0.0114,-0.161381 -0.034,-0.293926 -0.0678,-0.397207 -0.034,-0.103186 -0.0821,-0.178267 -0.14529,-0.225142 -0.0631,-0.0468 -0.14619,-0.0702 -0.24929,-0.0702 -0.10346,0 -0.18656,0.0234 -0.24948,0.0702 -0.0629,0.04688 -0.11146,0.121956 -0.14529,0.225142 -0.034,0.103281 -0.0565,0.235826 -0.0678,0.397207 -0.0114,0.16145 -0.017,0.358341 -0.017,0.590813 0,0.232428 0.006,0.430093 0.017,0.593092 z m -0.67788,-1.317087 c 0.0242,-0.221039 0.0774,-0.410902 0.15964,-0.569083 0.0824,-0.158034 0.20112,-0.281487 0.35604,-0.370496 0.1551,-0.08871 0.36312,-0.133097 0.62478,-0.133097 0.2613,0 0.46968,0.04439 0.6246,0.133097 0.15492,0.08901 0.27348,0.212462 0.35585,0.370496 0.0822,0.158181 0.13547,0.348044 0.15983,0.569083 0.0242,0.221116 0.0362,0.462404 0.0362,0.723995 0,0.264592 -0.012,0.506792 -0.0362,0.726283 -0.0243,0.219619 -0.0777,0.408424 -0.15983,0.566596 -0.0824,0.158181 -0.20093,0.279139 -0.35585,0.363167 -0.15492,0.08379 -0.3633,0.125862 -0.6246,0.125862 -0.26166,0 -0.46968,-0.04207 -0.62478,-0.125862 -0.15492,-0.08405 -0.27366,-0.204986 -0.35604,-0.363167 -0.0821,-0.158172 -0.13546,-0.346977 -0.15964,-0.566596 -0.0243,-0.219491 -0.0364,-0.461691 -0.0364,-0.726283 0,-0.261591 0.012,-0.502879 0.0364,-0.723995"
         style="fill:#000000;fill-opacity:1;fill-rule:nonzero;stroke:none;stroke-width:0.0181835"
         id="path24542" />
      <path
         d="m -230.84255,-94.367702 0.49386,2.44049 h 0.01 l 0.49877,-2.44049 h 1.03137 v 3.4575 h -0.63933 v -2.760199 h -0.009 l -0.61496,2.760199 h -0.54243 l -0.61496,-2.760199 h -0.01 v 2.760199 h -0.63933 v -3.4575 h 1.03627"
         style="fill:#000000;fill-opacity:1;fill-rule:nonzero;stroke:none;stroke-width:0.0181835"
         id="path24544" />
      <path
         d="m -226.86691,-92.21288 -0.33404,-1.554272 h -0.01 l -0.33421,1.554272 z m 0.092,-2.154822 0.91517,3.4575 h -0.72625 l -0.15983,-0.731247 h -0.92009 l -0.15983,0.731247 h -0.72643 l 0.91518,-3.4575 h 0.86208"
         style="fill:#000000;fill-opacity:1;fill-rule:nonzero;stroke:none;stroke-width:0.0181835"
         id="path24546" />
      <path
         d="m -223.4046,-94.367702 0.49387,2.44049 h 0.01 l 0.49877,-2.44049 h 1.03136 v 3.4575 h -0.63896 v -2.760199 h -0.01 l -0.61497,2.760199 h -0.54218 l -0.61497,-2.760199 h -0.01 v 2.760199 h -0.63932 v -3.4575 h 1.03645"
         style="fill:#000000;fill-opacity:1;fill-rule:nonzero;stroke:none;stroke-width:0.0181835"
         id="path24548" />
      <path
         d="m -218.94001,-93.79634 h -1.23484 v 0.813485 h 1.16229 v 0.57144 h -1.16229 v 0.929781 h 1.28321 v 0.571432 h -1.98055 v -3.4575 h 1.93218 v 0.571362"
         style="fill:#000000;fill-opacity:1;fill-rule:nonzero;stroke:none;stroke-width:0.0181835"
         id="path24550" />
      <path
         d="m -216.51889,-93.79634 h -0.75533 v 2.886138 h -0.69734 v -2.886138 h -0.75552 v -0.571362 h 2.20819 v 0.571362"
         style="fill:#000000;fill-opacity:1;fill-rule:nonzero;stroke:none;stroke-width:0.0181835"
         id="path24552" />
      <path
         d="m -215.23077,-92.856907 c 0.16784,0 0.29712,-0.03948 0.3875,-0.118618 0.0904,-0.07906 0.13546,-0.21223 0.13546,-0.399392 0,-0.319631 -0.16147,-0.479446 -0.48422,-0.479446 h -0.32931 v 0.997456 z m 0.30021,-1.510795 c 0.29058,0 0.5166,0.07355 0.67807,0.220324 0.16128,0.146895 0.24202,0.370428 0.24202,0.670737 0,0.232403 -0.0468,0.42206 -0.14039,0.568946 -0.0936,0.146817 -0.23892,0.241288 -0.43584,0.28319 v 0.0098 c 0.17437,0.02572 0.30184,0.08224 0.38258,0.169424 0.0807,0.08714 0.13074,0.227637 0.15019,0.421346 0.006,0.0646 0.0111,0.134808 0.0145,0.210595 0.003,0.07587 0.006,0.160735 0.009,0.254278 0.007,0.183962 0.0162,0.324465 0.0291,0.421199 0.0194,0.09696 0.0613,0.163024 0.12602,0.198535 v 0.02916 h -0.75534 c -0.0358,-0.04843 -0.0582,-0.104072 -0.0679,-0.167076 -0.01,-0.06288 -0.0162,-0.128408 -0.0195,-0.196109 l -0.0193,-0.66333 c -0.007,-0.135669 -0.0405,-0.242227 -0.10183,-0.319648 -0.0613,-0.07742 -0.16457,-0.116339 -0.30985,-0.116339 h -0.37295 v 1.462502 h -0.69733 v -3.4575 h 1.28812"
         style="fill:#000000;fill-opacity:1;fill-rule:nonzero;stroke:none;stroke-width:0.0181835"
         id="path24554" />
      <path
         d="m -212.88473,-92.045761 c 0.0114,0.163015 0.0341,0.295483 0.0678,0.397052 0.034,0.101714 0.0824,0.175945 0.14528,0.222819 0.0631,0.0468 0.14619,0.0702 0.24948,0.0702 0.10328,0 0.18656,-0.0234 0.24929,-0.0702 0.0631,-0.04688 0.11165,-0.121105 0.14547,-0.222819 0.0339,-0.101569 0.0563,-0.234037 0.0676,-0.397052 0.0114,-0.162999 0.017,-0.360664 0.017,-0.593092 0,-0.232472 -0.006,-0.429363 -0.017,-0.590813 -0.0113,-0.161381 -0.0338,-0.293926 -0.0676,-0.397207 -0.0338,-0.103186 -0.0823,-0.178267 -0.14547,-0.225142 -0.0627,-0.0468 -0.14601,-0.0702 -0.24929,-0.0702 -0.10329,0 -0.18638,0.0234 -0.24948,0.0702 -0.0629,0.04688 -0.11128,0.121956 -0.14528,0.225142 -0.0336,0.103281 -0.0564,0.235826 -0.0678,0.397207 -0.0111,0.16145 -0.017,0.358341 -0.017,0.590813 0,0.232428 0.006,0.430093 0.017,0.593092 z m -0.6777,-1.317087 c 0.024,-0.221039 0.0772,-0.410902 0.15983,-0.569083 0.0822,-0.158034 0.20075,-0.281487 0.35585,-0.370496 0.15492,-0.08871 0.36313,-0.133097 0.62461,-0.133097 0.26147,0 0.46967,0.04439 0.62478,0.133097 0.15474,0.08901 0.27348,0.212462 0.35585,0.370496 0.0823,0.158181 0.13565,0.348044 0.15984,0.569083 0.024,0.221116 0.0364,0.462404 0.0364,0.723995 0,0.264592 -0.0124,0.506792 -0.0364,0.726283 -0.0242,0.219619 -0.0775,0.408424 -0.15984,0.566596 -0.0824,0.158181 -0.20111,0.279139 -0.35585,0.363167 -0.15511,0.08379 -0.36331,0.125862 -0.62478,0.125862 -0.26148,0 -0.46969,-0.04207 -0.62461,-0.125862 -0.1551,-0.08405 -0.27366,-0.204986 -0.35585,-0.363167 -0.0826,-0.158172 -0.13583,-0.346977 -0.15983,-0.566596 -0.0243,-0.219491 -0.0366,-0.461691 -0.0366,-0.726283 0,-0.261591 0.0122,-0.502879 0.0366,-0.723995"
         style="fill:#000000;fill-opacity:1;fill-rule:nonzero;stroke:none;stroke-width:0.0181835"
         id="path24556" />
      <path
         d="m -209.82646,-92.803632 c 0.13856,0 0.25075,-0.04189 0.3364,-0.125939 0.0854,-0.08379 0.12837,-0.21451 0.12837,-0.392218 0,-0.174233 -0.0373,-0.306503 -0.11146,-0.397052 -0.0742,-0.0902 -0.19856,-0.135522 -0.37295,-0.135522 h -0.29056 v 1.050731 z m 0.21293,-1.56407 c 0.17747,0 0.32676,0.02985 0.44787,0.08964 0.1211,0.0597 0.21874,0.138008 0.29311,0.234751 0.0742,0.09695 0.12746,0.207541 0.15983,0.3317 0.032,0.124304 0.0483,0.251095 0.0483,0.380217 0,0.17751 -0.0265,0.33256 -0.0798,0.464899 -0.0532,0.132245 -0.12747,0.24042 -0.22275,0.324388 -0.0951,0.08405 -0.21057,0.146886 -0.34621,0.188779 -0.13547,0.04207 -0.28567,0.06297 -0.45041,0.06297 h -0.37294 v 1.380108 h -0.69716 v -3.4575 h 1.2203"
         style="fill:#000000;fill-opacity:1;fill-rule:nonzero;stroke:none;stroke-width:0.0181835"
         id="path24558" />
      <path
         d="m -207.67899,-92.045761 c 0.0113,0.163015 0.034,0.295483 0.0678,0.397052 0.034,0.101714 0.0821,0.175945 0.14528,0.222819 0.0629,0.0468 0.14601,0.0702 0.2493,0.0702 0.10328,0 0.18638,-0.0234 0.24947,-0.0702 0.0629,-0.04688 0.11129,-0.121105 0.14528,-0.222819 0.0338,-0.101569 0.0563,-0.234037 0.0676,-0.397052 0.0114,-0.162999 0.0171,-0.360664 0.0171,-0.593092 0,-0.232472 -0.006,-0.429363 -0.0171,-0.590813 -0.0113,-0.161381 -0.0339,-0.293926 -0.0676,-0.397207 -0.034,-0.103186 -0.0824,-0.178267 -0.14528,-0.225142 -0.0631,-0.0468 -0.14619,-0.0702 -0.24947,-0.0702 -0.10329,0 -0.18639,0.0234 -0.2493,0.0702 -0.0631,0.04688 -0.11129,0.121956 -0.14528,0.225142 -0.0338,0.103281 -0.0565,0.235826 -0.0678,0.397207 -0.0113,0.16145 -0.0171,0.358341 -0.0171,0.590813 0,0.232428 0.006,0.430093 0.0171,0.593092 z m -0.67788,-1.317087 c 0.024,-0.221039 0.0772,-0.410902 0.15965,-0.569083 0.0826,-0.158034 0.20112,-0.281487 0.35604,-0.370496 0.15492,-0.08871 0.3633,-0.133097 0.6246,-0.133097 0.26166,0 0.46968,0.04439 0.62479,0.133097 0.15492,0.08901 0.27347,0.212462 0.35584,0.370496 0.0824,0.158181 0.13565,0.348044 0.15983,0.569083 0.0242,0.221116 0.0364,0.462404 0.0364,0.723995 0,0.264592 -0.0122,0.506792 -0.0364,0.726283 -0.0242,0.219619 -0.0774,0.408424 -0.15983,0.566596 -0.0824,0.158181 -0.20092,0.279139 -0.35584,0.363167 -0.15511,0.08379 -0.36313,0.125862 -0.62479,0.125862 -0.2613,0 -0.46968,-0.04207 -0.6246,-0.125862 -0.15492,-0.08405 -0.27348,-0.204986 -0.35604,-0.363167 -0.0824,-0.158172 -0.13565,-0.346977 -0.15965,-0.566596 -0.0242,-0.219491 -0.0366,-0.461691 -0.0366,-0.726283 0,-0.261591 0.0123,-0.502879 0.0366,-0.723995"
         style="fill:#000000;fill-opacity:1;fill-rule:nonzero;stroke:none;stroke-width:0.0181835"
         id="path24560" />
      <path
         d="m -205.62826,-94.367702 h 0.69735 v 2.886068 h 1.23483 v 0.571432 h -1.93218 v -3.4575"
         style="fill:#000000;fill-opacity:1;fill-rule:nonzero;stroke:none;stroke-width:0.0181835"
         id="path24562" />
      <path
         d="m -203.35223,-94.367702 h 0.69715 v 3.4575 h -0.69715 v -3.4575"
         style="fill:#000000;fill-opacity:1;fill-rule:nonzero;stroke:none;stroke-width:0.0181835"
         id="path24564" />
      <path
         d="m -200.11284,-93.79634 h -0.75535 v 2.886138 h -0.69733 v -2.886138 h -0.75534 v -0.571362 h 2.20802 v 0.571362"
         style="fill:#000000;fill-opacity:1;fill-rule:nonzero;stroke:none;stroke-width:0.0181835"
         id="path24566" />
      <path
         d="m -198.6358,-92.21288 -0.33403,-1.554272 h -0.01 l -0.33421,1.554272 z m 0.092,-2.154822 0.91536,3.4575 h -0.72643 l -0.15966,-0.731247 h -0.92026 l -0.15965,0.731247 h -0.72643 l 0.91517,-3.4575 h 0.8619"
         style="fill:#000000;fill-opacity:1;fill-rule:nonzero;stroke:none;stroke-width:0.0181835"
         id="path24568" />
      <path
         d="m -195.74008,-91.999799 h 0.01 v -2.367903 h 0.63915 v 3.4575 h -0.79425 l -0.85208,-2.421187 h -0.01 v 2.421187 h -0.63897 v -3.4575 h 0.80371 l 0.84244,2.367903"
         style="fill:#000000;fill-opacity:1;fill-rule:nonzero;stroke:none;stroke-width:0.0181835"
         id="path24570" />
      <path
         d="m -193.16385,-92.21288 -0.33421,-1.554272 h -0.009 l -0.33422,1.554272 z m 0.092,-2.154822 0.91517,3.4575 h -0.72625 l -0.15983,-0.731247 h -0.92008 l -0.15983,0.731247 h -0.72625 l 0.91518,-3.4575 h 0.86189"
         style="fill:#000000;fill-opacity:1;fill-rule:nonzero;stroke:none;stroke-width:0.0181835"
         id="path24572" />
      <g
         id="g24606"
         style="fill:#57a519;fill-opacity:1"
         transform="matrix(0.63617797,0,0,0.63617797,-456.05883,-254.16743)">
        <path
           d="m 369.08379,261.2516 c 0,0.11802 0.007,0.22665 0.0231,0.32524 0.0152,0.0986 0.0435,0.18411 0.0855,0.25635 0.0414,0.0723 0.0986,0.12951 0.17093,0.17093 0.0723,0.0418 0.1632,0.0623 0.27296,0.0623 0.11375,0 0.20579,-0.0205 0.27582,-0.0623 0.0703,-0.0414 0.12604,-0.0986 0.16749,-0.17093 0.0417,-0.0722 0.0703,-0.15777 0.0857,-0.25635 0.0151,-0.0986 0.0229,-0.20722 0.0229,-0.32524 v -3.27392 h 0.94694 v 3.27392 c 0,0.29777 -0.042,0.54441 -0.12519,0.73935 -0.0832,0.19494 -0.19494,0.34957 -0.33528,0.46368 -0.14034,0.11399 -0.30011,0.19059 -0.47961,0.22978 -0.17978,0.0397 -0.36614,0.0592 -0.55878,0.0592 -0.19322,0 -0.37929,-0.0174 -0.55879,-0.0526 -0.17978,-0.0349 -0.34013,-0.10607 -0.48018,-0.21358 -0.14006,-0.10741 -0.2521,-0.25948 -0.33527,-0.45665 -0.0835,-0.19729 -0.12462,-0.45364 -0.12462,-0.76916 v -3.27392 h 0.94636 v 3.27392"
           style="fill:#57a519;fill-opacity:1;fill-rule:nonzero;stroke:none;stroke-width:0.0285824"
           id="path24574" />
        <path
           d="m 372.57484,259.13473 v 0.41421 h 0.0129 c 0.0966,-0.17552 0.22123,-0.30357 0.37472,-0.38475 0.15348,-0.0812 0.32869,-0.12147 0.52591,-0.12147 0.28954,0 0.51163,0.0789 0.6674,0.23638 0.1552,0.15809 0.23352,0.41444 0.23352,0.76946 v 2.623 h -0.90721 v -2.43921 c 0,-0.18379 -0.0309,-0.31218 -0.092,-0.38441 -0.0615,-0.0723 -0.16035,-0.10841 -0.29611,-0.10841 -0.31984,0 -0.4799,0.19493 -0.4799,0.58517 v 2.34686 h -0.90721 v -3.53683 h 0.86805"
           style="fill:#57a519;fill-opacity:1;fill-rule:nonzero;stroke:none;stroke-width:0.0285824"
           id="path24576" />
        <path
           d="m 375.93384,259.13473 v 3.53683 h -0.9072 v -3.53683 z m 0,-1.20972 v 0.77561 h -0.9072 v -0.77561 h 0.9072"
           style="fill:#57a519;fill-opacity:1;fill-rule:nonzero;stroke:none;stroke-width:0.0285824"
           id="path24578" />
        <path
           d="m 377.48186,261.77401 c 0.0592,0.19528 0.1875,0.29241 0.38472,0.29241 0.20151,0 0.33213,-0.0971 0.39129,-0.29241 0.0592,-0.19494 0.0886,-0.48534 0.0886,-0.87086 0,-0.38587 -0.0294,-0.67626 -0.0886,-0.87122 -0.0592,-0.19493 -0.18978,-0.2924 -0.39129,-0.2924 -0.19722,0 -0.32555,0.0975 -0.38472,0.2924 -0.0592,0.19496 -0.0889,0.48535 -0.0889,0.87122 0,0.38552 0.0297,0.67592 0.0889,0.87086 z m 0.89091,0.52286 c -0.10089,0.16658 -0.21379,0.28258 -0.3387,0.34835 -0.1249,0.0658 -0.27925,0.0984 -0.4636,0.0984 -0.37215,0 -0.64625,-0.14236 -0.82175,-0.42729 -0.17521,-0.2847 -0.26267,-0.75609 -0.26267,-1.41314 0,-0.6574 0.0875,-1.13192 0.26267,-1.42343 0.1755,-0.29117 0.4496,-0.437 0.82175,-0.437 0.17092,0 0.31669,0.0348 0.43731,0.10495 0.12061,0.0702 0.22923,0.17541 0.32526,0.31553 h 0.0134 v -1.48552 h 0.9072 v 4.69388 h -0.86804 v -0.37469 h -0.0129"
           style="fill:#57a519;fill-opacity:1;fill-rule:nonzero;stroke:none;stroke-width:0.0285824"
           id="path24580" />
        <path
           d="m 381.31133,261.01803 c -0.0703,0.0286 -0.13377,0.0495 -0.19093,0.0626 -0.18379,0.0391 -0.31527,0.10483 -0.39415,0.19717 -0.0792,0.0918 -0.11833,0.21671 -0.11833,0.3747 0,0.13576 0.0263,0.25188 0.0789,0.34812 0.0523,0.0967 0.14006,0.14492 0.26296,0.14492 0.0614,0 0.12491,-0.01 0.19064,-0.0297 0.0655,-0.0198 0.12577,-0.0515 0.18065,-0.0951 0.0549,-0.0441 0.0997,-0.10093 0.1349,-0.17094 0.0349,-0.0703 0.0526,-0.15352 0.0526,-0.24987 v -0.6968 c -0.0615,0.048 -0.12748,0.0863 -0.19722,0.11488 z m -1.45942,-0.88404 c 0,-0.2061 0.0326,-0.37817 0.0986,-0.51616 0.0657,-0.13811 0.15463,-0.24987 0.2661,-0.33528 0.11176,-0.0855 0.24352,-0.14694 0.39444,-0.18412 0.1512,-0.0372 0.3124,-0.0557 0.48333,-0.0557 0.27182,0 0.49047,0.0264 0.65739,0.0789 0.16635,0.0526 0.29583,0.12682 0.38786,0.22318 0.0917,0.0966 0.15435,0.21179 0.18722,0.34521 0.0329,0.13377 0.0494,0.27937 0.0494,0.43734 v 1.86021 c 0,0.16658 0.007,0.29609 0.0229,0.38787 0.0154,0.0922 0.0449,0.19058 0.0889,0.29609 h -0.86804 c -0.0306,-0.0572 -0.0534,-0.11745 -0.0689,-0.18098 -0.0152,-0.0634 -0.0294,-0.12605 -0.0426,-0.18746 h -0.0131 c -0.10519,0.18433 -0.22695,0.30358 -0.36471,0.3584 -0.13834,0.0549 -0.31698,0.0821 -0.53592,0.0821 -0.15778,0 -0.29154,-0.0271 -0.40101,-0.0821 -0.10976,-0.0548 -0.19722,-0.1303 -0.26296,-0.22688 -0.0657,-0.0961 -0.11404,-0.20465 -0.14463,-0.32534 -0.0306,-0.12059 -0.0463,-0.24005 -0.0463,-0.3584 0,-0.16636 0.0177,-0.30983 0.0529,-0.43041 0.0349,-0.12036 0.0886,-0.22352 0.16091,-0.30905 0.0723,-0.0854 0.16435,-0.15666 0.27611,-0.21382 0.11204,-0.0565 0.24638,-0.10718 0.40444,-0.15083 l 0.51248,-0.13811 c 0.13605,-0.0352 0.23038,-0.0832 0.28297,-0.14491 0.0526,-0.0612 0.0789,-0.15086 0.0789,-0.26953 0,-0.13577 -0.032,-0.24207 -0.0955,-0.31864 -0.0637,-0.0766 -0.17207,-0.11524 -0.32555,-0.11524 -0.14006,0 -0.24524,0.0418 -0.31527,0.12493 -0.07,0.0834 -0.10518,0.19519 -0.10518,0.33553 v 0.0984 h -0.81517 v -0.0852"
           style="fill:#57a519;fill-opacity:1;fill-rule:nonzero;stroke:none;stroke-width:0.0285824"
           id="path24582" />
        <path
           d="m 383.93062,261.77401 c 0.0592,0.19528 0.18778,0.29241 0.38471,0.29241 0.20151,0 0.33213,-0.0971 0.3913,-0.29241 0.0592,-0.19494 0.0889,-0.48534 0.0889,-0.87086 0,-0.38587 -0.0297,-0.67626 -0.0889,-0.87122 -0.0592,-0.19493 -0.18979,-0.2924 -0.3913,-0.2924 -0.19693,0 -0.32555,0.0975 -0.38471,0.2924 -0.0592,0.19496 -0.0886,0.48535 -0.0886,0.87122 0,0.38552 0.0294,0.67592 0.0886,0.87086 z m 0.89119,0.52286 c -0.10118,0.16658 -0.21379,0.28258 -0.33898,0.34835 -0.12462,0.0658 -0.27925,0.0984 -0.46332,0.0984 -0.37243,0 -0.64654,-0.14236 -0.82175,-0.42729 -0.17521,-0.2847 -0.26295,-0.75609 -0.26295,-1.41314 0,-0.6574 0.0877,-1.13192 0.26295,-1.42343 0.17521,-0.29117 0.44932,-0.437 0.82175,-0.437 0.17092,0 0.3164,0.0348 0.43702,0.10495 0.12062,0.0702 0.22923,0.17541 0.32555,0.31553 h 0.0134 v -1.48552 h 0.9072 v 4.69388 h -0.86804 v -0.37469 h -0.0129"
           style="fill:#57a519;fill-opacity:1;fill-rule:nonzero;stroke:none;stroke-width:0.0285824"
           id="path24584" />
        <path
           d="m 387.9573,257.97768 h 0.94665 v 4.69388 h -0.94665 v -4.69388"
           style="fill:#57a519;fill-opacity:1;fill-rule:nonzero;stroke:none;stroke-width:0.0285824"
           id="path24586" />
        <path
           d="m 390.84955,259.87104 h -1.34737 v -0.73631 h 2.41921 v 0.69692 l -1.4134,2.10336 h 1.4134 v 0.73655 h -2.48524 v -0.69691 l 1.4134,-2.10361"
           style="fill:#57a519;fill-opacity:1;fill-rule:nonzero;stroke:none;stroke-width:0.0285824"
           id="path24588" />
        <path
           d="m 393.4857,258.12228 v 1.01245 h 0.5262 v 0.61798 h -0.5262 v 1.913 c 0,0.14012 0.0209,0.23983 0.0626,0.299 0.0417,0.0592 0.12833,0.0885 0.25953,0.0885 0.0351,0 0.0703,-7.8e-4 0.10546,-0.003 0.0349,-0.002 0.068,-0.005 0.0986,-0.01 v 0.63115 c -0.10089,0 -0.19836,0.003 -0.29268,0.01 -0.0943,0.007 -0.19379,0.01 -0.29897,0.01 -0.1755,0 -0.31898,-0.0121 -0.43074,-0.0361 -0.11176,-0.024 -0.19722,-0.0722 -0.25638,-0.14459 -0.0592,-0.0723 -0.0998,-0.16747 -0.12148,-0.28582 -0.022,-0.11835 -0.0331,-0.26729 -0.0331,-0.44705 v -2.02476 h -0.45989 v -0.61798 h 0.45989 v -1.01245 h 0.9072"
           style="fill:#57a519;fill-opacity:1;fill-rule:nonzero;stroke:none;stroke-width:0.0285824"
           id="path24590" />
        <path
           d="m 395.78001,261.01803 c -0.0703,0.0286 -0.13377,0.0495 -0.19065,0.0626 -0.18378,0.0391 -0.31554,0.10483 -0.39415,0.19717 -0.0792,0.0918 -0.11833,0.21671 -0.11833,0.3747 0,0.13576 0.026,0.25188 0.0786,0.34812 0.0526,0.0967 0.14034,0.14492 0.26296,0.14492 0.0615,0 0.12491,-0.01 0.19093,-0.0297 0.0655,-0.0198 0.12548,-0.0515 0.18064,-0.0951 0.0549,-0.0441 0.0995,-0.10093 0.13463,-0.17094 0.0351,-0.0703 0.0526,-0.15352 0.0526,-0.24987 v -0.6968 c -0.0615,0.048 -0.12691,0.0863 -0.19722,0.11488 z m -1.45913,-0.88404 c 0,-0.2061 0.0326,-0.37817 0.0983,-0.51616 0.0657,-0.13811 0.15463,-0.24987 0.2661,-0.33528 0.11205,-0.0855 0.24353,-0.14694 0.39473,-0.18412 0.15148,-0.0372 0.31212,-0.0557 0.48304,-0.0557 0.27182,0 0.49076,0.0264 0.65739,0.0789 0.16635,0.0526 0.29612,0.12682 0.38815,0.22318 0.0917,0.0966 0.15435,0.21179 0.18693,0.34521 0.0329,0.13377 0.0497,0.27937 0.0497,0.43734 v 1.86021 c 0,0.16658 0.007,0.29609 0.0229,0.38787 0.0152,0.0922 0.0446,0.19058 0.0889,0.29609 h -0.86776 c -0.0309,-0.0572 -0.054,-0.11745 -0.0692,-0.18098 -0.0154,-0.0634 -0.0294,-0.12605 -0.0429,-0.18746 h -0.0129 c -0.10547,0.18433 -0.22695,0.30358 -0.365,0.3584 -0.13805,0.0549 -0.31669,0.0821 -0.53592,0.0821 -0.15749,0 -0.29154,-0.0271 -0.40101,-0.0821 -0.10947,-0.0548 -0.19693,-0.1303 -0.26296,-0.22688 -0.0657,-0.0961 -0.11376,-0.20465 -0.14434,-0.32534 -0.0309,-0.12059 -0.0463,-0.24005 -0.0463,-0.3584 0,-0.16636 0.0177,-0.30983 0.0529,-0.43041 0.0349,-0.12036 0.0886,-0.22352 0.16064,-0.30905 0.0726,-0.0854 0.16463,-0.15666 0.27639,-0.21382 0.11175,-0.0565 0.24666,-0.10718 0.40415,-0.15083 l 0.51277,-0.13811 c 0.13605,-0.0352 0.23037,-0.0832 0.28297,-0.14491 0.0523,-0.0612 0.0786,-0.15086 0.0786,-0.26953 0,-0.13577 -0.0317,-0.24207 -0.0952,-0.31864 -0.0637,-0.0766 -0.17235,-0.11524 -0.32556,-0.11524 -0.14033,0 -0.24523,0.0418 -0.31554,0.12493 -0.0697,0.0834 -0.1049,0.19519 -0.1049,0.33553 v 0.0984 h -0.81517 v -0.0852"
           style="fill:#57a519;fill-opacity:1;fill-rule:nonzero;stroke:none;stroke-width:0.0285824"
           id="path24592" />
        <path
           d="m 398.48504,261.77401 c 0.0592,0.19528 0.18951,0.29241 0.39101,0.29241 0.19751,0 0.32555,-0.0971 0.38472,-0.29241 0.0592,-0.19494 0.0889,-0.48534 0.0889,-0.87086 0,-0.38587 -0.0297,-0.67626 -0.0889,-0.87122 -0.0592,-0.19493 -0.18721,-0.2924 -0.38472,-0.2924 -0.2015,0 -0.33184,0.0975 -0.39101,0.2924 -0.0592,0.19496 -0.0886,0.48535 -0.0886,0.87122 0,0.38552 0.0294,0.67592 0.0886,0.87086 z m -0.12804,-2.63928 v 0.37468 h 0.0131 c 0.1009,-0.16658 0.21351,-0.28605 0.3387,-0.35839 0.12491,-0.0722 0.27897,-0.1083 0.46332,-0.1083 0.37215,0 0.64625,0.14583 0.82175,0.437 0.17521,0.29151 0.26296,0.76603 0.26296,1.42343 0,0.65705 -0.0877,1.12844 -0.26296,1.41314 -0.1755,0.28493 -0.4496,0.42729 -0.82175,0.42729 -0.17092,0 -0.31669,-0.0317 -0.43731,-0.0952 -0.12061,-0.0634 -0.22865,-0.16546 -0.32526,-0.30547 h -0.0131 v 1.46596 h -0.90721 v -4.6741 h 0.86777"
           style="fill:#57a519;fill-opacity:1;fill-rule:nonzero;stroke:none;stroke-width:0.0285824"
           id="path24594" />
        <path
           d="m 402.22905,261.01803 c -0.0703,0.0286 -0.13405,0.0495 -0.19065,0.0626 -0.18407,0.0391 -0.31583,0.10483 -0.39443,0.19717 -0.0789,0.0918 -0.11833,0.21671 -0.11833,0.3747 0,0.13576 0.0263,0.25188 0.0786,0.34812 0.0529,0.0967 0.14062,0.14492 0.26296,0.14492 0.0614,0 0.12519,-0.01 0.19093,-0.0297 0.0657,-0.0198 0.12576,-0.0515 0.18064,-0.0951 0.0552,-0.0441 0.0998,-0.10093 0.13491,-0.17094 0.0352,-0.0703 0.0523,-0.15352 0.0523,-0.24987 v -0.6968 c -0.0612,0.048 -0.1269,0.0863 -0.19693,0.11488 z m -1.45942,-0.88404 c 0,-0.2061 0.0329,-0.37817 0.0983,-0.51616 0.066,-0.13811 0.15463,-0.24987 0.26638,-0.33528 0.11176,-0.0855 0.24324,-0.14694 0.39473,-0.18412 0.1512,-0.0372 0.31212,-0.0557 0.48275,-0.0557 0.27182,0 0.49105,0.0264 0.65768,0.0789 0.16635,0.0526 0.29583,0.12682 0.38787,0.22318 0.092,0.0966 0.15434,0.21179 0.18721,0.34521 0.0329,0.13377 0.0497,0.27937 0.0497,0.43734 v 1.86021 c 0,0.16658 0.007,0.29609 0.0229,0.38787 0.0149,0.0922 0.0446,0.19058 0.0886,0.29609 h -0.86777 c -0.0306,-0.0572 -0.0537,-0.11745 -0.0689,-0.18098 -0.0157,-0.0634 -0.0297,-0.12605 -0.0432,-0.18746 h -0.0129 c -0.10547,0.18433 -0.22666,0.30358 -0.365,0.3584 -0.13776,0.0549 -0.3164,0.0821 -0.53592,0.0821 -0.15749,0 -0.29125,-0.0271 -0.40072,-0.0821 -0.10947,-0.0548 -0.19722,-0.1303 -0.26296,-0.22688 -0.066,-0.0961 -0.11404,-0.20465 -0.14463,-0.32534 -0.0306,-0.12059 -0.046,-0.24005 -0.046,-0.3584 0,-0.16636 0.0174,-0.30983 0.0526,-0.43041 0.0351,-0.12036 0.0889,-0.22352 0.16092,-0.30905 0.0726,-0.0854 0.16435,-0.15666 0.27639,-0.21382 0.11147,-0.0565 0.24638,-0.10718 0.40415,-0.15083 l 0.51277,-0.13811 c 0.13577,-0.0352 0.23009,-0.0832 0.28268,-0.14491 0.0526,-0.0612 0.0786,-0.15086 0.0786,-0.26953 0,-0.13577 -0.0317,-0.24207 -0.0952,-0.31864 -0.0634,-0.0766 -0.17206,-0.11524 -0.32527,-0.11524 -0.14033,0 -0.24552,0.0418 -0.31583,0.12493 -0.0697,0.0834 -0.1049,0.19519 -0.1049,0.33553 v 0.0984 h -0.81517 v -0.0852"
           style="fill:#57a519;fill-opacity:1;fill-rule:nonzero;stroke:none;stroke-width:0.0285824"
           id="path24596" />
        <path
           d="m 404.87835,257.97768 v 4.69388 h -0.90749 v -4.69388 h 0.90749"
           style="fill:#57a519;fill-opacity:1;fill-rule:nonzero;stroke:none;stroke-width:0.0285824"
           id="path24598" />
        <path
           d="m 406.96858,261.01803 c -0.07,0.0286 -0.13377,0.0495 -0.19036,0.0626 -0.18436,0.0391 -0.31584,0.10483 -0.39472,0.19717 -0.0786,0.0918 -0.11833,0.21671 -0.11833,0.3747 0,0.13576 0.0263,0.25188 0.0789,0.34812 0.0529,0.0967 0.14063,0.14492 0.26296,0.14492 0.0612,0 0.12491,-0.01 0.19065,-0.0297 0.066,-0.0198 0.12604,-0.0515 0.18092,-0.0951 0.0549,-0.0441 0.0995,-0.10093 0.13462,-0.17094 0.0352,-0.0703 0.0526,-0.15352 0.0526,-0.24987 v -0.6968 c -0.0612,0.048 -0.12691,0.0863 -0.19722,0.11488 z m -1.45913,-0.88404 c 0,-0.2061 0.0329,-0.37817 0.0983,-0.51616 0.0657,-0.13811 0.15435,-0.24987 0.26639,-0.33528 0.11176,-0.0855 0.24295,-0.14694 0.39444,-0.18412 0.1512,-0.0372 0.3124,-0.0557 0.48304,-0.0557 0.27153,0 0.49104,0.0264 0.65739,0.0789 0.16664,0.0526 0.29583,0.12682 0.38786,0.22318 0.0923,0.0966 0.15464,0.21179 0.18751,0.34521 0.0329,0.13377 0.0494,0.27937 0.0494,0.43734 v 1.86021 c 0,0.16658 0.007,0.29609 0.0229,0.38787 0.0152,0.0922 0.0449,0.19058 0.0886,0.29609 h -0.86747 c -0.0306,-0.0572 -0.0537,-0.11745 -0.0692,-0.18098 -0.0154,-0.0634 -0.0297,-0.12605 -0.0429,-0.18746 h -0.0129 c -0.10547,0.18433 -0.22665,0.30358 -0.36528,0.3584 -0.13777,0.0549 -0.31641,0.0821 -0.53563,0.0821 -0.15778,0 -0.29126,-0.0271 -0.40101,-0.0821 -0.10947,-0.0548 -0.19722,-0.1303 -0.26296,-0.22688 -0.0657,-0.0961 -0.11404,-0.20465 -0.14463,-0.32534 -0.0306,-0.12059 -0.0457,-0.24005 -0.0457,-0.3584 0,-0.16636 0.0172,-0.30983 0.0523,-0.43041 0.0354,-0.12036 0.0889,-0.22352 0.1612,-0.30905 0.0723,-0.0854 0.16435,-0.15666 0.27611,-0.21382 0.11147,-0.0565 0.24666,-0.10718 0.40415,-0.15083 l 0.51305,-0.13811 c 0.13549,-0.0352 0.22981,-0.0832 0.2824,-0.14491 0.0526,-0.0612 0.0789,-0.15086 0.0789,-0.26953 0,-0.13577 -0.0317,-0.24207 -0.0952,-0.31864 -0.0635,-0.0766 -0.17207,-0.11524 -0.32527,-0.11524 -0.14034,0 -0.24581,0.0418 -0.31584,0.12493 -0.07,0.0834 -0.10518,0.19519 -0.10518,0.33553 v 0.0984 h -0.81488 v -0.0852"
           style="fill:#57a519;fill-opacity:1;fill-rule:nonzero;stroke:none;stroke-width:0.0285824"
           id="path24600" />
        <path
           d="m 409.6739,261.77401 c 0.0592,0.19528 0.18921,0.29241 0.39101,0.29241 0.19721,0 0.32526,-0.0971 0.38443,-0.29241 0.0592,-0.19494 0.0886,-0.48534 0.0886,-0.87086 0,-0.38587 -0.0294,-0.67626 -0.0886,-0.87122 -0.0592,-0.19493 -0.18722,-0.2924 -0.38443,-0.2924 -0.2018,0 -0.33185,0.0975 -0.39101,0.2924 -0.0592,0.19496 -0.0889,0.48535 -0.0889,0.87122 0,0.38552 0.0297,0.67592 0.0889,0.87086 z m -0.12834,-2.63928 v 0.37468 h 0.0131 c 0.10061,-0.16658 0.2138,-0.28605 0.33842,-0.35839 0.12519,-0.0722 0.27953,-0.1083 0.46332,-0.1083 0.37271,0 0.64653,0.14583 0.82174,0.437 0.17521,0.29151 0.26324,0.76603 0.26324,1.42343 0,0.65705 -0.088,1.12844 -0.26324,1.41314 -0.17521,0.28493 -0.44903,0.42729 -0.82174,0.42729 -0.17064,0 -0.31641,-0.0317 -0.43703,-0.0952 -0.12061,-0.0634 -0.22894,-0.16546 -0.32555,-0.30547 h -0.0129 v 1.46596 h -0.90721 v -4.6741 h 0.86776"
           style="fill:#57a519;fill-opacity:1;fill-rule:nonzero;stroke:none;stroke-width:0.0285824"
           id="path24602" />
        <path
           d="m 413.41733,261.01803 c -0.07,0.0286 -0.13348,0.0495 -0.19036,0.0626 -0.18407,0.0391 -0.31555,0.10483 -0.39443,0.19717 -0.0789,0.0918 -0.11833,0.21671 -0.11833,0.3747 0,0.13576 0.026,0.25188 0.0789,0.34812 0.0526,0.0967 0.14034,0.14492 0.26296,0.14492 0.0612,0 0.12462,-0.01 0.19065,-0.0297 0.0657,-0.0198 0.12576,-0.0515 0.18092,-0.0951 0.0546,-0.0441 0.0995,-0.10093 0.13462,-0.17094 0.0349,-0.0703 0.0526,-0.15352 0.0526,-0.24987 v -0.6968 c -0.0615,0.048 -0.1272,0.0863 -0.19751,0.11488 z m -1.45913,-0.88404 c 0,-0.2061 0.0329,-0.37817 0.0986,-0.51616 0.0654,-0.13811 0.15435,-0.24987 0.2661,-0.33528 0.11205,-0.0855 0.24324,-0.14694 0.39444,-0.18412 0.15149,-0.0372 0.3124,-0.0557 0.48333,-0.0557 0.27182,0 0.49047,0.0264 0.65711,0.0789 0.16692,0.0526 0.29611,0.12682 0.38814,0.22318 0.092,0.0966 0.15435,0.21179 0.18722,0.34521 0.0329,0.13377 0.0494,0.27937 0.0494,0.43734 v 1.86021 c 0,0.16658 0.007,0.29609 0.0229,0.38787 0.0154,0.0922 0.0449,0.19058 0.0889,0.29609 h -0.86776 c -0.0309,-0.0572 -0.0537,-0.11745 -0.0692,-0.18098 -0.0151,-0.0634 -0.0294,-0.12605 -0.0426,-0.18746 h -0.0131 c -0.10518,0.18433 -0.22666,0.30358 -0.365,0.3584 -0.13805,0.0549 -0.31669,0.0821 -0.53563,0.0821 -0.15778,0 -0.29154,-0.0271 -0.4013,-0.0821 -0.10918,-0.0548 -0.19693,-0.1303 -0.26296,-0.22688 -0.0655,-0.0961 -0.11375,-0.20465 -0.14434,-0.32534 -0.0309,-0.12059 -0.046,-0.24005 -0.046,-0.3584 0,-0.16636 0.0174,-0.30983 0.0526,-0.43041 0.0351,-0.12036 0.0889,-0.22352 0.16092,-0.30905 0.0723,-0.0854 0.16463,-0.15666 0.2761,-0.21382 0.11176,-0.0565 0.24695,-0.10718 0.40416,-0.15083 l 0.51305,-0.13811 c 0.13577,-0.0352 0.23009,-0.0832 0.28268,-0.14491 0.0526,-0.0612 0.0789,-0.15086 0.0789,-0.26953 0,-0.13577 -0.0317,-0.24207 -0.0955,-0.31864 -0.0634,-0.0766 -0.17206,-0.11524 -0.32527,-0.11524 -0.14034,0 -0.24552,0.0418 -0.31555,0.12493 -0.07,0.0834 -0.10518,0.19519 -0.10518,0.33553 v 0.0984 h -0.81517 v -0.0852"
           style="fill:#57a519;fill-opacity:1;fill-rule:nonzero;stroke:none;stroke-width:0.0285824"
           id="path24604" />
      </g>
    </g>
  </g>
</svg>
